<?xml version="1.0" encoding="UTF-8"?>
<svg id="Layer_1" xmlns="http://www.w3.org/2000/svg" version="1.1" viewBox="0 0 551.4 469.57">
  <!-- Generator: Adobe Illustrator 29.6.1, SVG Export Plug-In . SVG Version: 2.1.1 Build 9)  -->
  <defs>
    <style>
      .st0 {
        fill: #fff;
      }
    </style>
  </defs>
  <path class="st0" d="M447.72,229.51c0,6.3-2.72,11.08-8.16,14.35-2.81,1.53-5.64,2.28-8.47,2.28-2.19,0-4.24-.42-6.21-1.3-4.78-2.17-7.94-5.86-9.46-11.1-.44-1.5-1.53-2.28-3.27-2.28-1.08,0-1.95.55-2.61,1.64-3.03,5.66-4.55,11.65-4.55,17.95,0,2.61.2,5.22.64,7.83,1.53,8.93,7.19,16.43,16.98,22.53,3.47,1.53,6.04,3.91,7.67,7.16,1.61,3.27,2.43,6.77,2.43,10.46,0,12.85-2.17,25.56-6.52,38.18-8.91,27.2-24.59,46.9-47.01,59.08-11.3,6.08-24.25,9.24-38.82,9.46h-64.41v-162.48c0-79.26-64.23-143.49-143.47-143.49h-20.27v113.01h-8.53V63.82h208.23v133.7c0,12.67-5.04,24.83-14,33.78l-12.51,12.54,26.51,26.51v94.25c0,3.2.47,6.3,1.33,9.22,2.12,7.15,6.22,11.73,8.15,13.66,1.79,1.79,6.71,6.58,14.55,8.39,7.69,1.78,14.33-.19,19.56-1.75.75-.22,2.97-.9,5.75-2.09,13.27-5.66,22.84-15.23,28.72-28.72,2.83-6.74,4.22-14.04,4.22-21.87v-76.06c0-11.3,2.94-21.38,8.82-30.18,5.88-8.82,12.51-15.39,19.9-19.74,2.83-1.53,5.66-2.3,8.49-2.3,6.1,0,10.77,2.74,14.04,8.18,1.53,2.61,2.28,5.33,2.28,8.16h0Z"/>
</svg>