<?xml version="1.0" encoding="UTF-8"?>
<svg id="Layer_1" data-name="Layer 1" xmlns="http://www.w3.org/2000/svg" viewBox="0 0 868.92 310.36">
  <path d="M212.31,200.18c-1.57-.81-3.02-1.95-4.35-3.42-1.33-1.47-2.9-3.44-4.7-5.92-1.33-1.9-3.02-4.51-5.06-7.84-2.04-3.33-4.33-7.2-6.84-11.62-2.52-4.42-5.25-9.29-8.2-14.61-2.95-5.32-5.94-10.88-8.98-16.68,4.08-1.52,7.82-3.49,11.19-5.92,3.37-2.42,6.3-5.23,8.77-8.41,2.47-3.18,4.4-6.72,5.77-10.62,1.38-3.9,2.07-8.03,2.07-12.4,0-6.56-1.43-11.95-4.28-16.18-2.85-4.23-6.58-7.58-11.19-10.05-4.61-2.47-9.77-4.18-15.47-5.13-5.7-.95-11.41-1.43-17.11-1.43-3.99,0-7.91.26-11.76.78-3.85.52-7.68.78-11.48.78-2.28,0-4.66-.02-7.13-.07-2.47-.05-4.9-.07-7.27-.07s-4.59-.02-6.63-.07c-2.05-.05-3.83-.07-5.35-.07l-.28,5.13c3.99.19,7.18.52,9.55,1,2.38.48,4.16,1.21,5.35,2.21,1.19,1,1.97,2.26,2.35,3.78.38,1.52.57,3.42.57,5.7v95.95c0,3.61-.21,6.54-.64,8.77-.43,2.23-1.26,3.99-2.5,5.28-1.24,1.28-2.97,2.23-5.2,2.85-2.23.62-5.2,1.07-8.91,1.35h0s-2.92,0-2.92,0c-3.78,0-7.35-.72-10.68-2.17-6.79-2.89-11.69-7.79-14.69-14.69-1.45-3.45-2.17-7.18-2.17-11.18v-38.89c0-5.79-1.5-10.93-4.51-15.44-3-4.51-6.4-7.87-10.18-10.1-1.45-.78-2.9-1.17-4.34-1.17-3.12,0-5.51,1.39-7.18,4.17-.78,1.33-1.17,2.73-1.17,4.17,0,3.23,1.39,5.67,4.17,7.34,1.44.78,2.89,1.17,4.34,1.17,1.11,0,2.17-.22,3.17-.67,2.45-1.11,4.06-3,4.84-5.68.22-.78.78-1.17,1.67-1.17.56,0,1,.28,1.34.83,1.56,2.9,2.34,5.95,2.34,9.18,0,1.34-.11,2.67-.33,4.01-.78,4.56-3.67,8.4-8.68,11.52-1.78.78-3.09,2-3.92,3.67-.83,1.67-1.25,3.45-1.25,5.34,0,6.57,1.11,13.08,3.34,19.53,4.56,13.91,12.57,23.98,24.04,30.21,5.79,3.12,12.41,4.73,19.86,4.84h3.66c1.24,0,2.69-.03,4.38-.07,1.9-.05,3.9-.07,5.99-.07s4.37-.02,6.56-.07c2.18-.05,4.18-.07,5.99-.07,4.56,0,9.31.05,14.26.14,4.94.1,9.69.14,14.26.14l.28-5.13c-4.47-.09-7.94-.4-10.41-.93-2.47-.52-4.35-1.31-5.63-2.35-1.28-1.04-2.07-2.35-2.35-3.92s-.43-3.49-.43-5.77v-45.34c1.52.1,2.83.17,3.92.21,1.09.05,2.02.07,2.78.07h4.28c2.19,0,3.94.14,5.28.43,1.33.29,2.4.69,3.21,1.21.81.52,1.47,1.17,2,1.92.52.76,1.07,1.62,1.64,2.57,3.61,6.18,7.08,12.26,10.41,18.25,3.33,5.99,6.37,11.53,9.12,16.61,2.76,5.09,5.13,9.55,7.13,13.4,2,3.85,3.47,6.77,4.42,8.77,1.33-.09,2.78-.17,4.35-.21,1.57-.05,3.02-.07,4.35-.07,4.28,0,8.72.05,13.33.14,4.61.1,8.34.14,11.19.14l.29-5.13c-3.33-.29-6.04-.62-8.13-1-2.09-.38-3.92-.97-5.49-1.78ZM147.37,138.09h-4.56c-.76,0-1.52-.02-2.28-.07-.76-.05-1.52-.12-2.28-.21v-48.19c0-1.9.09-3.61.29-5.13.19-1.52.66-2.8,1.43-3.85.76-1.04,1.97-1.83,3.64-2.35,1.66-.52,3.97-.78,6.91-.78,9.69,0,17.47,2.23,23.31,6.7,5.85,4.47,8.77,11.55,8.77,21.24,0,11.5-3.06,19.82-9.2,24.95-6.13,5.13-14.8,7.7-26.02,7.7Z" fill="#1d372d"/>
  <path d="M356.81,87.34c-6.18-6.08-13.62-10.76-22.31-14.04-8.7-3.28-18.23-4.92-28.58-4.92s-20.15,1.81-28.8,5.42c-8.65,3.61-16.06,8.65-22.24,15.11-6.18,6.46-10.98,14.14-14.4,23.02-3.42,8.89-5.13,18.61-5.13,29.16s1.73,20.27,5.2,28.87c3.47,8.6,8.32,15.95,14.54,22.03,6.22,6.08,13.66,10.76,22.31,14.04,8.65,3.28,18.15,4.92,28.51,4.92s20.15-1.81,28.8-5.42c8.65-3.61,16.06-8.65,22.24-15.11,6.18-6.46,10.98-14.14,14.4-23.03,3.42-8.89,5.13-18.6,5.13-29.15s-1.74-20.27-5.2-28.87c-3.47-8.6-8.29-15.94-14.47-22.03ZM352.67,171.24c-2.76,7.56-6.44,13.71-11.05,18.46-4.61,4.75-9.93,8.2-15.97,10.34-6.04,2.14-12.33,3.21-18.89,3.21-6.08,0-12.19-1.12-18.32-3.35-6.13-2.23-11.67-5.99-16.61-11.26-4.94-5.28-8.98-12.24-12.12-20.89-3.14-8.65-4.7-19.34-4.7-32.08,0-10.83,1.38-20.03,4.13-27.59,2.76-7.56,6.44-13.71,11.05-18.46,4.61-4.75,9.93-8.2,15.97-10.34,6.03-2.14,12.33-3.21,18.89-3.21,6.08,0,12.19,1.12,18.32,3.35,6.13,2.23,11.67,5.99,16.61,11.26,4.94,5.28,8.98,12.24,12.12,20.89,3.14,8.65,4.7,19.34,4.7,32.08,0,10.84-1.38,20.03-4.13,27.59Z" fill="#1d372d"/>
  <path d="M522.76,71.44c-4.56.14-8.94.21-13.12.21-5.13,0-10.05-.05-14.76-.14-4.7-.09-8.72-.14-12.05-.14l-.29,5.13c4.66.28,8.46.71,11.41,1.28,2.95.57,5.25,1.57,6.91,2.99,1.66,1.43,2.8,3.42,3.42,5.99.62,2.57.93,5.94.93,10.12v59.88c0,7.7-1.07,14.28-3.21,19.75-2.14,5.47-5.01,9.93-8.63,13.4-3.61,3.47-7.75,5.99-12.4,7.56-4.66,1.57-9.55,2.35-14.68,2.35s-9.93-.73-14.68-2.21c-4.75-1.47-9.01-3.75-12.76-6.84-3.76-3.09-6.77-7.08-9.05-11.98-2.28-4.89-3.42-10.76-3.42-17.61v-66.01c0-3.51.26-6.44.78-8.77.52-2.33,1.5-4.21,2.92-5.63,1.43-1.43,3.42-2.47,5.99-3.14,2.57-.66,5.89-1.14,9.98-1.43l-.43-4.85c-1.62,0-3.49.02-5.63.07-2.14.05-4.4.07-6.77.07s-4.73.02-7.06.07c-2.33.05-4.44.07-6.34.07-2.38,0-4.92-.02-7.63-.07-2.71-.05-5.4-.07-8.05-.07s-5.01-.02-7.34-.07c-2.33-.05-4.35-.07-6.06-.07l-.29,5.13c4.28.19,7.7.57,10.27,1.14,2.57.57,4.54,1.4,5.92,2.5,1.38,1.09,2.28,2.45,2.71,4.06.43,1.62.64,3.56.64,5.84v76.13c0,7.61,1.38,14.21,4.13,19.82,2.76,5.61,6.44,10.26,11.05,13.97,4.61,3.71,9.91,6.46,15.9,8.27,5.99,1.8,12.26,2.71,18.82,2.71s13.19-.93,19.6-2.78c6.42-1.85,12.17-4.85,17.25-8.98,5.08-4.13,9.2-9.43,12.33-15.9,3.14-6.46,4.7-14.35,4.7-23.67v-60.31c0-5.13.29-9.17.85-12.12.57-2.95,1.64-5.18,3.21-6.7,1.57-1.52,3.66-2.54,6.27-3.07,2.61-.52,6.01-.97,10.19-1.35l-.14-4.85c-3.04,0-6.84.07-11.41.21Z" fill="#1d372d"/>
  <path d="M666.04,87.34c-6.19-6.09-13.62-10.77-22.32-14.05-8.7-3.28-18.22-4.91-28.59-4.91s-20.15,1.81-28.79,5.42c-8.65,3.61-16.07,8.65-22.25,15.1-6.18,6.46-10.97,14.11-14.4,22.96-3.42,8.83-5.13,18.53-5.13,29.08,0,9.23,1.33,17.66,3.99,25.31,2.67,7.65,6.4,14.4,11.19,20.25s10.53,10.71,17.19,14.61c6.01,3.52,10.33,4.66,21.95,8.27,15.46,4.8,10.62,3.66,26.7,8.59,6.07,1.86,14.33,4.35,24.24,7.18,4.73,1.26,7.96,3.75,9.69,7.46,2.14,4.86,5.54,7.91,10.21,9.16,1.39.37,2.61.26,3.65-.34,1.04-.6,1.7-1.44,1.99-2.54.31-1.15.16-2.25-.44-3.28-.6-1.04-1.48-1.71-2.63-2.02-1.33-.36-2.57-.1-3.71.76-.74.58-1.23,1.33-1.47,2.24-.1.36-.14.77-.13,1.23l-.05.18c-.08.3-.23.49-.44.56-.21.07-.41.08-.59.04l-.34-.19c-1.59-2.05-2.6-4.36-3.01-6.94-1.62-6.34-5.53-11.61-11.75-15.81-2.86-1.93-5.93-3.34-9.2-4.21l-11.09-2.97c7.09-1.55,13.7-4.05,19.84-7.52,7.22-4.08,13.45-9.25,18.68-15.47,5.22-6.22,9.32-13.36,12.26-21.39,2.94-8.03,4.42-16.7,4.42-26.02,0-10.64-1.74-20.25-5.2-28.79-3.47-8.56-8.29-15.87-14.47-21.96ZM662.05,171.09c-2.67,7.56-6.23,13.69-10.7,18.39-4.46,4.71-9.67,8.12-15.61,10.26-5.94,2.14-12.19,3.21-18.75,3.21-6.09,0-12.26-1.12-18.53-3.35-6.27-2.23-11.93-5.96-16.97-11.19-5.04-5.22-9.17-12.17-12.4-20.81-3.23-8.65-4.84-19.35-4.84-32.08,0-10.84,1.37-20.03,4.13-27.58,2.76-7.56,6.44-13.69,11.06-18.39,4.6-4.7,9.93-8.12,15.97-10.26,6.03-2.14,12.33-3.21,18.89-3.21,6.07,0,12.18,1.12,18.31,3.35s11.66,5.97,16.61,11.19c4.95,5.23,8.98,12.17,12.12,20.82,3.13,8.64,4.71,19.34,4.71,32.07,0,10.84-1.33,20.03-3.99,27.59Z" fill="#1d372d"/>
  <path d="M821.72,71.23c-3.52,0-7.15.05-10.91.14-3.76.1-7.39.14-10.91.14-4.28,0-8.36-.05-12.26-.14-3.9-.09-7.61-.14-11.12-.14l-.29,5.13c5.42.38,9.2.97,11.33,1.78,2.14.81,3.21,2.12,3.21,3.92,0,1.33-.41,2.92-1.21,4.78-.81,1.85-1.97,4.16-3.49,6.91l-25.09,45.34-25.95-47.76c-1.14-2.19-2.04-4.04-2.71-5.56-.67-1.52-1-2.85-1-3.99,0-1.71.97-2.99,2.92-3.85,1.95-.86,5.49-1.47,10.62-1.85l-.43-4.85c-3.99,0-8.05.05-12.19.14-4.13.1-8.2.14-12.19.14-4.85,0-9.67-.05-14.47-.14-4.8-.09-9.2-.14-13.19-.14l-.29,5.13c3.71.28,6.75.74,9.12,1.35,2.37.62,4.44,1.62,6.2,2.99,1.76,1.38,3.42,3.23,4.99,5.56,1.57,2.33,3.44,5.35,5.63,9.05,5.61,9.32,10.24,17.2,13.9,23.67,3.66,6.46,6.77,11.98,9.34,16.54,1.9,3.42,3.37,6.27,4.42,8.55,1.04,2.28,1.83,4.4,2.35,6.34.52,1.95.83,3.9.93,5.85.09,1.95.14,4.3.14,7.06v21.67c0,3.61-.21,6.54-.64,8.77-.43,2.23-1.31,4.02-2.64,5.35-1.33,1.33-3.33,2.28-5.99,2.85-2.66.57-6.18,1-10.55,1.28l.43,4.85c1.8,0,3.85-.02,6.13-.07,2.28-.05,4.56-.07,6.84-.07s4.54-.02,6.77-.07c2.23-.05,4.3-.07,6.2-.07,2.28,0,4.73.02,7.34.07,2.61.05,5.25.07,7.91.07s5.25.02,7.77.07c2.52.05,4.78.07,6.77.07l.29-5.13c-4.66-.19-8.34-.52-11.05-1-2.71-.48-4.73-1.21-6.06-2.21-1.33-1-2.19-2.26-2.57-3.78-.38-1.52-.57-3.42-.57-5.7v-28.23c0-2.38.02-4.4.07-6.06.05-1.66.31-3.4.78-5.2.48-1.8,1.23-3.9,2.28-6.27,1.04-2.38,2.57-5.51,4.56-9.41,2-3.99,4.75-9.1,8.27-15.33,3.51-6.22,7.7-13.38,12.55-21.46,2.66-4.47,4.92-8.08,6.77-10.83,1.85-2.76,3.73-4.94,5.63-6.56,1.9-1.62,4.06-2.76,6.49-3.42,2.42-.66,5.49-1.14,9.19-1.43l-.43-4.85Z" fill="#1d372d"/>
</svg>