<svg xmlns="http://www.w3.org/2000/svg" viewBox="0 0 500 496" width="500" height="496">
  <path fill="#1d372d" d="M 0,0 L 0,215 L 12,215 L 13,51 L 44,51 L 62,52 L 70,53 L 77,54 L 82,55 L 87,56 L 91,57 L 95,58 L 99,59 L 102,60 L 105,61 L 108,62 L 111,63 L 114,64 L 117,65 L 120,67 L 122,67 L 131,72 L 133,72 L 137,74 L 139,76 L 146,79 L 148,81 L 151,82 L 154,84 L 157,86 L 160,88 L 163,90 L 167,93 L 171,96 L 177,101 L 186,109 L 192,115 L 201,125 L 206,131 L 209,135 L 212,139 L 214,142 L 216,145 L 218,148 L 220,151 L 221,154 L 223,156 L 227,165 L 229,167 L 230,169 L 230,171 L 234,178 L 234,180 L 236,183 L 236,185 L 238,188 L 239,191 L 240,194 L 241,197 L 242,200 L 243,203 L 244,207 L 245,211 L 246,215 L 247,220 L 248,226 L 249,232 L 250,241 L 250,495 L 352,495 L 361,494 L 367,493 L 372,492 L 376,491 L 379,490 L 382,489 L 385,488 L 388,487 L 391,485 L 393,485 L 401,481 L 403,479 L 406,478 L 409,476 L 412,474 L 415,472 L 419,469 L 424,465 L 438,451 L 442,446 L 445,442 L 447,439 L 449,436 L 451,433 L 453,430 L 462,412 L 462,410 L 464,407 L 464,405 L 466,402 L 467,399 L 468,396 L 469,393 L 470,390 L 471,386 L 472,383 L 473,379 L 474,374 L 475,369 L 476,363 L 477,354 L 477,335 L 476,331 L 475,328 L 473,324 L 471,321 L 469,319 L 466,317 L 463,316 L 460,314 L 457,312 L 445,300 L 443,297 L 439,289 L 438,285 L 437,280 L 437,263 L 438,258 L 439,255 L 440,252 L 442,249 L 442,247 L 444,245 L 447,242 L 449,242 L 454,248 L 454,250 L 455,252 L 457,255 L 461,259 L 464,261 L 466,262 L 469,263 L 474,264 L 477,264 L 482,263 L 485,262 L 487,261 L 490,259 L 495,254 L 498,248 L 499,244 L 499,236 L 498,233 L 497,230 L 496,228 L 493,224 L 490,221 L 487,219 L 485,218 L 482,217 L 470,217 L 467,218 L 461,221 L 458,223 L 453,227 L 442,238 L 439,242 L 436,246 L 434,249 L 432,252 L 428,260 L 428,262 L 426,265 L 425,268 L 424,272 L 423,277 L 422,284 L 422,412 L 421,418 L 420,423 L 419,426 L 418,429 L 417,432 L 411,444 L 409,447 L 407,450 L 404,454 L 394,464 L 389,468 L 386,470 L 381,472 L 379,474 L 377,474 L 372,477 L 369,478 L 366,479 L 363,480 L 360,481 L 355,482 L 348,483 L 345,483 L 338,482 L 334,481 L 331,480 L 325,477 L 322,475 L 310,463 L 309,460 L 307,458 L 305,454 L 304,451 L 303,448 L 302,444 L 302,299 L 264,260 L 286,238 L 289,234 L 291,231 L 293,228 L 296,222 L 296,220 L 298,217 L 299,214 L 300,210 L 301,206 L 302,198 L 302,0 Z" />
</svg>