<svg xmlns="http://www.w3.org/2000/svg" viewBox="0 0 800 179" width="800" height="179">
  <path d="M 577,0 L 571,1 L 566,2 L 563,3 L 560,4 L 557,5 L 545,11 L 541,14 L 536,18 L 532,22 L 528,27 L 526,30 L 524,33 L 519,43 L 518,46 L 517,49 L 516,52 L 515,56 L 514,61 L 514,87 L 515,92 L 516,96 L 517,99 L 518,102 L 519,105 L 523,113 L 525,116 L 527,119 L 533,126 L 540,132 L 543,134 L 546,136 L 552,139 L 554,139 L 557,141 L 560,142 L 564,143 L 567,144 L 570,145 L 573,146 L 576,147 L 579,148 L 582,149 L 585,150 L 588,151 L 592,152 L 595,153 L 598,154 L 601,155 L 604,155 L 607,156 L 610,157 L 614,158 L 617,159 L 621,160 L 624,161 L 626,162 L 632,168 L 633,171 L 638,176 L 642,178 L 645,178 L 648,175 L 648,173 L 645,170 L 642,170 L 640,172 L 638,175 L 636,173 L 635,171 L 635,169 L 634,166 L 633,163 L 632,161 L 630,158 L 626,154 L 622,151 L 616,148 L 613,147 L 610,147 L 606,146 L 602,144 L 605,143 L 608,142 L 611,141 L 614,140 L 624,135 L 627,133 L 630,131 L 636,126 L 639,123 L 644,117 L 646,114 L 648,111 L 653,101 L 654,98 L 655,95 L 656,92 L 657,88 L 658,82 L 658,61 L 657,55 L 656,50 L 655,47 L 654,44 L 652,41 L 652,39 L 649,33 L 647,30 L 645,27 L 642,23 L 636,17 L 631,13 L 628,11 L 616,5 L 613,4 L 610,3 L 606,2 L 602,1 L 595,0 Z" fill="white" />
  <path d="M 258,0 L 252,1 L 247,2 L 244,3 L 241,4 L 238,5 L 226,11 L 222,14 L 217,18 L 214,21 L 209,27 L 207,30 L 205,33 L 200,43 L 199,46 L 198,49 L 197,52 L 196,56 L 195,62 L 195,87 L 196,93 L 197,97 L 198,100 L 199,103 L 205,115 L 207,118 L 210,122 L 218,130 L 222,133 L 225,135 L 228,137 L 232,139 L 234,139 L 237,141 L 240,142 L 243,143 L 246,144 L 251,145 L 258,146 L 275,146 L 282,145 L 287,144 L 290,143 L 293,142 L 296,141 L 306,136 L 309,134 L 312,132 L 324,120 L 326,117 L 328,114 L 330,111 L 332,107 L 332,105 L 334,102 L 335,99 L 336,96 L 337,93 L 338,89 L 339,82 L 339,61 L 338,55 L 337,50 L 336,47 L 335,44 L 333,41 L 333,39 L 330,33 L 328,30 L 326,27 L 323,23 L 317,17 L 312,13 L 309,11 L 297,5 L 294,4 L 291,3 L 287,2 L 283,1 L 276,0 Z" fill="white" />
  <path d="M 259,7 L 272,7 L 278,8 L 281,9 L 284,10 L 287,11 L 291,13 L 294,15 L 297,17 L 305,25 L 308,29 L 309,32 L 311,34 L 313,38 L 313,40 L 315,43 L 316,46 L 317,49 L 318,53 L 319,59 L 320,68 L 320,86 L 319,94 L 318,99 L 317,102 L 316,105 L 315,108 L 311,116 L 309,119 L 306,123 L 301,128 L 297,131 L 294,133 L 290,135 L 287,136 L 284,137 L 281,138 L 275,139 L 261,139 L 256,138 L 252,137 L 249,136 L 241,132 L 238,130 L 228,120 L 225,116 L 219,104 L 218,101 L 217,98 L 216,94 L 215,89 L 214,82 L 214,57 L 215,51 L 216,46 L 217,43 L 218,40 L 220,37 L 220,35 L 222,31 L 224,28 L 226,25 L 234,17 L 238,14 L 244,11 L 247,10 L 250,9 L 253,8 Z" fill="#13140f" />
  <path d="M 578,7 L 591,7 L 597,8 L 600,9 L 603,10 L 606,11 L 610,13 L 613,15 L 616,17 L 624,25 L 627,29 L 628,32 L 630,34 L 632,38 L 632,40 L 634,43 L 635,46 L 636,49 L 637,53 L 638,59 L 639,67 L 639,86 L 638,94 L 637,99 L 636,103 L 635,106 L 632,111 L 632,113 L 630,115 L 629,118 L 627,121 L 619,129 L 615,132 L 609,135 L 606,136 L 603,137 L 599,138 L 592,139 L 584,139 L 577,138 L 573,137 L 570,136 L 567,135 L 561,132 L 558,130 L 553,126 L 550,123 L 546,118 L 544,115 L 543,112 L 541,110 L 540,108 L 540,106 L 538,103 L 537,100 L 536,97 L 535,94 L 534,89 L 533,81 L 533,57 L 534,50 L 535,46 L 536,43 L 537,40 L 538,37 L 541,31 L 543,28 L 545,25 L 553,17 L 557,14 L 563,11 L 566,10 L 569,9 L 572,8 Z" fill="#13140f" />
  <path d="M 98,2 L 59,3 L 59,7 L 61,7 L 69,8 L 72,9 L 77,14 L 77,130 L 76,132 L 71,137 L 68,138 L 63,139 L 51,139 L 48,138 L 45,137 L 41,135 L 37,132 L 34,129 L 32,126 L 30,123 L 29,121 L 28,118 L 27,113 L 27,63 L 26,60 L 25,57 L 23,54 L 21,51 L 15,45 L 12,43 L 5,43 L 3,44 L 1,46 L 0,48 L 0,53 L 1,55 L 4,58 L 6,59 L 10,59 L 16,53 L 20,52 L 22,56 L 23,61 L 23,64 L 22,68 L 20,72 L 14,78 L 10,80 L 9,82 L 8,84 L 8,95 L 9,100 L 10,104 L 11,107 L 12,110 L 13,113 L 16,119 L 18,122 L 20,125 L 29,134 L 32,136 L 35,138 L 39,140 L 42,141 L 45,142 L 50,143 L 113,143 L 113,139 L 109,139 L 102,138 L 99,137 L 97,135 L 94,132 L 93,127 L 94,78 L 111,78 L 116,82 L 118,84 L 120,87 L 122,92 L 124,94 L 126,99 L 128,101 L 131,108 L 133,110 L 137,119 L 139,121 L 145,134 L 147,136 L 149,141 L 150,143 L 184,143 L 184,139 L 182,138 L 176,138 L 172,137 L 170,136 L 161,127 L 159,124 L 157,121 L 155,118 L 154,115 L 152,113 L 150,108 L 148,106 L 146,101 L 144,99 L 141,92 L 139,90 L 136,83 L 134,81 L 132,76 L 131,74 L 133,72 L 140,69 L 143,67 L 152,58 L 154,55 L 157,49 L 158,46 L 159,42 L 159,28 L 158,24 L 155,18 L 147,10 L 139,6 L 136,5 L 133,4 L 129,3 L 123,2 Z" fill="white" />
  <path d="M 355,3 L 355,8 L 363,8 L 367,9 L 371,11 L 373,13 L 374,15 L 375,19 L 375,109 L 376,114 L 377,117 L 381,125 L 383,128 L 391,136 L 394,138 L 402,142 L 405,143 L 408,144 L 412,145 L 418,146 L 433,146 L 440,145 L 444,144 L 447,143 L 450,142 L 453,140 L 455,140 L 457,138 L 460,137 L 464,134 L 470,128 L 473,124 L 478,114 L 479,111 L 480,107 L 481,100 L 481,20 L 482,17 L 483,14 L 487,10 L 489,9 L 492,8 L 498,8 L 502,7 L 502,3 L 450,3 L 450,8 L 459,8 L 463,9 L 467,11 L 471,15 L 472,17 L 473,22 L 473,98 L 472,104 L 471,108 L 470,111 L 466,119 L 462,124 L 460,126 L 456,129 L 453,131 L 451,132 L 449,132 L 446,134 L 442,135 L 423,135 L 419,134 L 416,133 L 413,132 L 409,130 L 406,128 L 397,119 L 393,111 L 392,108 L 391,104 L 391,18 L 393,14 L 397,10 L 399,9 L 402,8 L 407,8 L 411,7 L 410,3 Z" fill="white" />
  <path d="M 666,3 L 666,7 L 668,8 L 673,8 L 677,9 L 679,10 L 687,18 L 689,21 L 691,24 L 692,27 L 694,29 L 695,32 L 697,34 L 699,39 L 701,41 L 702,44 L 704,46 L 706,51 L 708,53 L 710,58 L 712,60 L 715,67 L 717,69 L 722,79 L 723,82 L 724,85 L 725,92 L 725,123 L 724,130 L 723,132 L 718,137 L 715,138 L 709,139 L 704,139 L 705,143 L 761,143 L 761,139 L 758,139 L 750,138 L 747,137 L 745,136 L 741,132 L 741,85 L 742,82 L 743,79 L 754,57 L 756,55 L 758,50 L 760,48 L 762,43 L 764,41 L 765,38 L 767,36 L 768,33 L 770,31 L 771,28 L 773,26 L 774,23 L 776,20 L 779,16 L 784,11 L 790,8 L 795,7 L 799,7 L 799,3 L 753,3 L 753,7 L 755,8 L 761,8 L 764,9 L 767,12 L 768,14 L 767,18 L 763,26 L 761,28 L 758,35 L 756,37 L 753,44 L 751,46 L 748,53 L 746,55 L 743,62 L 741,64 L 738,71 L 735,71 L 733,68 L 729,59 L 727,57 L 723,48 L 721,46 L 717,37 L 715,35 L 711,26 L 709,24 L 706,18 L 705,15 L 705,12 L 708,9 L 710,8 L 715,8 L 719,7 L 719,3 Z" fill="white" />
  <path d="M 105,9 L 108,9 L 117,9 L 120,10 L 123,11 L 129,14 L 136,21 L 138,24 L 139,27 L 140,31 L 140,46 L 139,50 L 138,53 L 135,59 L 128,66 L 122,69 L 119,70 L 116,71 L 110,72 L 95,72 L 93,70 L 93,19 L 94,14 L 95,12 L 97,10 L 99,9 Z" fill="#13140f" />
</svg>