<?xml version="1.0" encoding="utf-8" ?>
<svg baseProfile="full" height="496px" version="1.1" viewBox="0 0 500 496" width="500px" xmlns="http://www.w3.org/2000/svg" xmlns:ev="http://www.w3.org/2001/xml-events" xmlns:xlink="http://www.w3.org/1999/xlink"><defs /><g fill="#1d372d" stroke="none"><rect height="1" width="303" x="0" y="0" /><rect height="1" width="303" x="0" y="1" /><rect height="1" width="303" x="0" y="2" /><rect height="1" width="303" x="0" y="3" /><rect height="1" width="303" x="0" y="4" /><rect height="1" width="303" x="0" y="5" /><rect height="1" width="303" x="0" y="6" /><rect height="1" width="303" x="0" y="7" /><rect height="1" width="303" x="0" y="8" /><rect height="1" width="303" x="0" y="9" /><rect height="1" width="303" x="0" y="10" /><rect height="1" width="303" x="0" y="11" /><rect height="1" width="303" x="0" y="12" /><rect height="1" width="303" x="0" y="13" /><rect height="1" width="303" x="0" y="14" /><rect height="1" width="303" x="0" y="15" /><rect height="1" width="303" x="0" y="16" /><rect height="1" width="303" x="0" y="17" /><rect height="1" width="303" x="0" y="18" /><rect height="1" width="303" x="0" y="19" /><rect height="1" width="303" x="0" y="20" /><rect height="1" width="303" x="0" y="21" /><rect height="1" width="303" x="0" y="22" /><rect height="1" width="303" x="0" y="23" /><rect height="1" width="303" x="0" y="24" /><rect height="1" width="303" x="0" y="25" /><rect height="1" width="303" x="0" y="26" /><rect height="1" width="303" x="0" y="27" /><rect height="1" width="303" x="0" y="28" /><rect height="1" width="303" x="0" y="29" /><rect height="1" width="303" x="0" y="30" /><rect height="1" width="303" x="0" y="31" /><rect height="1" width="303" x="0" y="32" /><rect height="1" width="303" x="0" y="33" /><rect height="1" width="303" x="0" y="34" /><rect height="1" width="303" x="0" y="35" /><rect height="1" width="303" x="0" y="36" /><rect height="1" width="303" x="0" y="37" /><rect height="1" width="303" x="0" y="38" /><rect height="1" width="303" x="0" y="39" /><rect height="1" width="303" x="0" y="40" /><rect height="1" width="303" x="0" y="41" /><rect height="1" width="303" x="0" y="42" /><rect height="1" width="303" x="0" y="43" /><rect height="1" width="303" x="0" y="44" /><rect height="1" width="303" x="0" y="45" /><rect height="1" width="303" x="0" y="46" /><rect height="1" width="303" x="0" y="47" /><rect height="1" width="303" x="0" y="48" /><rect height="1" width="303" x="0" y="49" /><rect height="1" width="303" x="0" y="50" /><rect height="1" width="303" x="0" y="51" /><rect height="1" width="303" x="0" y="52" /><rect height="1" width="13" x="0" y="53" /><rect height="1" width="242" x="61" y="53" /><rect height="1" width="13" x="0" y="54" /><rect height="1" width="233" x="70" y="54" /><rect height="1" width="13" x="0" y="55" /><rect height="1" width="226" x="77" y="55" /><rect height="1" width="13" x="0" y="56" /><rect height="1" width="220" x="83" y="56" /><rect height="1" width="13" x="0" y="57" /><rect height="1" width="216" x="87" y="57" /><rect height="1" width="13" x="0" y="58" /><rect height="1" width="211" x="92" y="58" /><rect height="1" width="13" x="0" y="59" /><rect height="1" width="207" x="96" y="59" /><rect height="1" width="13" x="0" y="60" /><rect height="1" width="204" x="99" y="60" /><rect height="1" width="13" x="0" y="61" /><rect height="1" width="201" x="102" y="61" /><rect height="1" width="13" x="0" y="62" /><rect height="1" width="197" x="106" y="62" /><rect height="1" width="13" x="0" y="63" /><rect height="1" width="194" x="109" y="63" /><rect height="1" width="13" x="0" y="64" /><rect height="1" width="191" x="112" y="64" /><rect height="1" width="13" x="0" y="65" /><rect height="1" width="189" x="114" y="65" /><rect height="1" width="13" x="0" y="66" /><rect height="1" width="186" x="117" y="66" /><rect height="1" width="13" x="0" y="67" /><rect height="1" width="183" x="120" y="67" /><rect height="1" width="13" x="0" y="68" /><rect height="1" width="181" x="122" y="68" /><rect height="1" width="13" x="0" y="69" /><rect height="1" width="179" x="124" y="69" /><rect height="1" width="13" x="0" y="70" /><rect height="1" width="176" x="127" y="70" /><rect height="1" width="13" x="0" y="71" /><rect height="1" width="174" x="129" y="71" /><rect height="1" width="13" x="0" y="72" /><rect height="1" width="172" x="131" y="72" /><rect height="1" width="13" x="0" y="73" /><rect height="1" width="170" x="133" y="73" /><rect height="1" width="13" x="0" y="74" /><rect height="1" width="168" x="135" y="74" /><rect height="1" width="13" x="0" y="75" /><rect height="1" width="166" x="137" y="75" /><rect height="1" width="13" x="0" y="76" /><rect height="1" width="164" x="139" y="76" /><rect height="1" width="13" x="0" y="77" /><rect height="1" width="162" x="141" y="77" /><rect height="1" width="13" x="0" y="78" /><rect height="1" width="160" x="143" y="78" /><rect height="1" width="13" x="0" y="79" /><rect height="1" width="158" x="145" y="79" /><rect height="1" width="13" x="0" y="80" /><rect height="1" width="157" x="146" y="80" /><rect height="1" width="13" x="0" y="81" /><rect height="1" width="155" x="148" y="81" /><rect height="1" width="13" x="0" y="82" /><rect height="1" width="153" x="150" y="82" /><rect height="1" width="13" x="0" y="83" /><rect height="1" width="152" x="151" y="83" /><rect height="1" width="13" x="0" y="84" /><rect height="1" width="150" x="153" y="84" /><rect height="1" width="13" x="0" y="85" /><rect height="1" width="149" x="154" y="85" /><rect height="1" width="13" x="0" y="86" /><rect height="1" width="147" x="156" y="86" /><rect height="1" width="13" x="0" y="87" /><rect height="1" width="145" x="158" y="87" /><rect height="1" width="13" x="0" y="88" /><rect height="1" width="144" x="159" y="88" /><rect height="1" width="13" x="0" y="89" /><rect height="1" width="143" x="160" y="89" /><rect height="1" width="13" x="0" y="90" /><rect height="1" width="141" x="162" y="90" /><rect height="1" width="13" x="0" y="91" /><rect height="1" width="140" x="163" y="91" /><rect height="1" width="13" x="0" y="92" /><rect height="1" width="138" x="165" y="92" /><rect height="1" width="13" x="0" y="93" /><rect height="1" width="137" x="166" y="93" /><rect height="1" width="13" x="0" y="94" /><rect height="1" width="136" x="167" y="94" /><rect height="1" width="13" x="0" y="95" /><rect height="1" width="134" x="169" y="95" /><rect height="1" width="13" x="0" y="96" /><rect height="1" width="133" x="170" y="96" /><rect height="1" width="13" x="0" y="97" /><rect height="1" width="132" x="171" y="97" /><rect height="1" width="13" x="0" y="98" /><rect height="1" width="130" x="173" y="98" /><rect height="1" width="13" x="0" y="99" /><rect height="1" width="129" x="174" y="99" /><rect height="1" width="13" x="0" y="100" /><rect height="1" width="128" x="175" y="100" /><rect height="1" width="13" x="0" y="101" /><rect height="1" width="127" x="176" y="101" /><rect height="1" width="13" x="0" y="102" /><rect height="1" width="126" x="177" y="102" /><rect height="1" width="13" x="0" y="103" /><rect height="1" width="125" x="178" y="103" /><rect height="1" width="13" x="0" y="104" /><rect height="1" width="123" x="180" y="104" /><rect height="1" width="13" x="0" y="105" /><rect height="1" width="122" x="181" y="105" /><rect height="1" width="13" x="0" y="106" /><rect height="1" width="121" x="182" y="106" /><rect height="1" width="13" x="0" y="107" /><rect height="1" width="120" x="183" y="107" /><rect height="1" width="13" x="0" y="108" /><rect height="1" width="119" x="184" y="108" /><rect height="1" width="13" x="0" y="109" /><rect height="1" width="118" x="185" y="109" /><rect height="1" width="13" x="0" y="110" /><rect height="1" width="117" x="186" y="110" /><rect height="1" width="13" x="0" y="111" /><rect height="1" width="116" x="187" y="111" /><rect height="1" width="13" x="0" y="112" /><rect height="1" width="115" x="188" y="112" /><rect height="1" width="13" x="0" y="113" /><rect height="1" width="114" x="189" y="113" /><rect height="1" width="13" x="0" y="114" /><rect height="1" width="113" x="190" y="114" /><rect height="1" width="13" x="0" y="115" /><rect height="1" width="112" x="191" y="115" /><rect height="1" width="13" x="0" y="116" /><rect height="1" width="111" x="192" y="116" /><rect height="1" width="13" x="0" y="117" /><rect height="1" width="110" x="193" y="117" /><rect height="1" width="13" x="0" y="118" /><rect height="1" width="109" x="194" y="118" /><rect height="1" width="13" x="0" y="119" /><rect height="1" width="108" x="195" y="119" /><rect height="1" width="13" x="0" y="120" /><rect height="1" width="107" x="196" y="120" /><rect height="1" width="13" x="0" y="121" /><rect height="1" width="106" x="197" y="121" /><rect height="1" width="13" x="0" y="122" /><rect height="1" width="105" x="198" y="122" /><rect height="1" width="13" x="0" y="123" /><rect height="1" width="104" x="199" y="123" /><rect height="1" width="13" x="0" y="124" /><rect height="1" width="104" x="199" y="124" /><rect height="1" width="13" x="0" y="125" /><rect height="1" width="103" x="200" y="125" /><rect height="1" width="13" x="0" y="126" /><rect height="1" width="102" x="201" y="126" /><rect height="1" width="13" x="0" y="127" /><rect height="1" width="101" x="202" y="127" /><rect height="1" width="13" x="0" y="128" /><rect height="1" width="100" x="203" y="128" /><rect height="1" width="13" x="0" y="129" /><rect height="1" width="99" x="204" y="129" /><rect height="1" width="13" x="0" y="130" /><rect height="1" width="98" x="205" y="130" /><rect height="1" width="13" x="0" y="131" /><rect height="1" width="98" x="205" y="131" /><rect height="1" width="13" x="0" y="132" /><rect height="1" width="97" x="206" y="132" /><rect height="1" width="13" x="0" y="133" /><rect height="1" width="96" x="207" y="133" /><rect height="1" width="13" x="0" y="134" /><rect height="1" width="95" x="208" y="134" /><rect height="1" width="13" x="0" y="135" /><rect height="1" width="95" x="208" y="135" /><rect height="1" width="13" x="0" y="136" /><rect height="1" width="94" x="209" y="136" /><rect height="1" width="13" x="0" y="137" /><rect height="1" width="93" x="210" y="137" /><rect height="1" width="13" x="0" y="138" /><rect height="1" width="92" x="211" y="138" /><rect height="1" width="13" x="0" y="139" /><rect height="1" width="92" x="211" y="139" /><rect height="1" width="13" x="0" y="140" /><rect height="1" width="91" x="212" y="140" /><rect height="1" width="13" x="0" y="141" /><rect height="1" width="90" x="213" y="141" /><rect height="1" width="13" x="0" y="142" /><rect height="1" width="89" x="214" y="142" /><rect height="1" width="13" x="0" y="143" /><rect height="1" width="89" x="214" y="143" /><rect height="1" width="13" x="0" y="144" /><rect height="1" width="88" x="215" y="144" /><rect height="1" width="13" x="0" y="145" /><rect height="1" width="87" x="216" y="145" /><rect height="1" width="13" x="0" y="146" /><rect height="1" width="87" x="216" y="146" /><rect height="1" width="13" x="0" y="147" /><rect height="1" width="86" x="217" y="147" /><rect height="1" width="13" x="0" y="148" /><rect height="1" width="85" x="218" y="148" /><rect height="1" width="13" x="0" y="149" /><rect height="1" width="85" x="218" y="149" /><rect height="1" width="13" x="0" y="150" /><rect height="1" width="84" x="219" y="150" /><rect height="1" width="13" x="0" y="151" /><rect height="1" width="84" x="219" y="151" /><rect height="1" width="13" x="0" y="152" /><rect height="1" width="83" x="220" y="152" /><rect height="1" width="13" x="0" y="153" /><rect height="1" width="82" x="221" y="153" /><rect height="1" width="13" x="0" y="154" /><rect height="1" width="82" x="221" y="154" /><rect height="1" width="13" x="0" y="155" /><rect height="1" width="81" x="222" y="155" /><rect height="1" width="13" x="0" y="156" /><rect height="1" width="81" x="222" y="156" /><rect height="1" width="13" x="0" y="157" /><rect height="1" width="80" x="223" y="157" /><rect height="1" width="13" x="0" y="158" /><rect height="1" width="79" x="224" y="158" /><rect height="1" width="13" x="0" y="159" /><rect height="1" width="79" x="224" y="159" /><rect height="1" width="13" x="0" y="160" /><rect height="1" width="78" x="225" y="160" /><rect height="1" width="13" x="0" y="161" /><rect height="1" width="78" x="225" y="161" /><rect height="1" width="13" x="0" y="162" /><rect height="1" width="77" x="226" y="162" /><rect height="1" width="13" x="0" y="163" /><rect height="1" width="77" x="226" y="163" /><rect height="1" width="13" x="0" y="164" /><rect height="1" width="76" x="227" y="164" /><rect height="1" width="13" x="0" y="165" /><rect height="1" width="76" x="227" y="165" /><rect height="1" width="13" x="0" y="166" /><rect height="1" width="75" x="228" y="166" /><rect height="1" width="13" x="0" y="167" /><rect height="1" width="75" x="228" y="167" /><rect height="1" width="13" x="0" y="168" /><rect height="1" width="74" x="229" y="168" /><rect height="1" width="13" x="0" y="169" /><rect height="1" width="74" x="229" y="169" /><rect height="1" width="13" x="0" y="170" /><rect height="1" width="73" x="230" y="170" /><rect height="1" width="13" x="0" y="171" /><rect height="1" width="73" x="230" y="171" /><rect height="1" width="13" x="0" y="172" /><rect height="1" width="72" x="231" y="172" /><rect height="1" width="13" x="0" y="173" /><rect height="1" width="72" x="231" y="173" /><rect height="1" width="13" x="0" y="174" /><rect height="1" width="71" x="232" y="174" /><rect height="1" width="13" x="0" y="175" /><rect height="1" width="71" x="232" y="175" /><rect height="1" width="13" x="0" y="176" /><rect height="1" width="70" x="233" y="176" /><rect height="1" width="13" x="0" y="177" /><rect height="1" width="70" x="233" y="177" /><rect height="1" width="13" x="0" y="178" /><rect height="1" width="70" x="233" y="178" /><rect height="1" width="13" x="0" y="179" /><rect height="1" width="69" x="234" y="179" /><rect height="1" width="13" x="0" y="180" /><rect height="1" width="69" x="234" y="180" /><rect height="1" width="13" x="0" y="181" /><rect height="1" width="68" x="235" y="181" /><rect height="1" width="13" x="0" y="182" /><rect height="1" width="68" x="235" y="182" /><rect height="1" width="13" x="0" y="183" /><rect height="1" width="67" x="236" y="183" /><rect height="1" width="13" x="0" y="184" /><rect height="1" width="67" x="236" y="184" /><rect height="1" width="13" x="0" y="185" /><rect height="1" width="67" x="236" y="185" /><rect height="1" width="13" x="0" y="186" /><rect height="1" width="66" x="237" y="186" /><rect height="1" width="13" x="0" y="187" /><rect height="1" width="66" x="237" y="187" /><rect height="1" width="13" x="0" y="188" /><rect height="1" width="66" x="237" y="188" /><rect height="1" width="13" x="0" y="189" /><rect height="1" width="65" x="238" y="189" /><rect height="1" width="13" x="0" y="190" /><rect height="1" width="65" x="238" y="190" /><rect height="1" width="13" x="0" y="191" /><rect height="1" width="64" x="239" y="191" /><rect height="1" width="13" x="0" y="192" /><rect height="1" width="64" x="239" y="192" /><rect height="1" width="13" x="0" y="193" /><rect height="1" width="64" x="239" y="193" /><rect height="1" width="13" x="0" y="194" /><rect height="1" width="63" x="240" y="194" /><rect height="1" width="13" x="0" y="195" /><rect height="1" width="63" x="240" y="195" /><rect height="1" width="13" x="0" y="196" /><rect height="1" width="63" x="240" y="196" /><rect height="1" width="13" x="0" y="197" /><rect height="1" width="62" x="241" y="197" /><rect height="1" width="13" x="0" y="198" /><rect height="1" width="62" x="241" y="198" /><rect height="1" width="13" x="0" y="199" /><rect height="1" width="62" x="241" y="199" /><rect height="1" width="13" x="0" y="200" /><rect height="1" width="61" x="241" y="200" /><rect height="1" width="13" x="0" y="201" /><rect height="1" width="60" x="242" y="201" /><rect height="1" width="13" x="0" y="202" /><rect height="1" width="60" x="242" y="202" /><rect height="1" width="13" x="0" y="203" /><rect height="1" width="60" x="242" y="203" /><rect height="1" width="13" x="0" y="204" /><rect height="1" width="59" x="243" y="204" /><rect height="1" width="13" x="0" y="205" /><rect height="1" width="59" x="243" y="205" /><rect height="1" width="13" x="0" y="206" /><rect height="1" width="59" x="243" y="206" /><rect height="1" width="13" x="0" y="207" /><rect height="1" width="59" x="243" y="207" /><rect height="1" width="13" x="0" y="208" /><rect height="1" width="57" x="244" y="208" /><rect height="1" width="13" x="0" y="209" /><rect height="1" width="57" x="244" y="209" /><rect height="1" width="13" x="0" y="210" /><rect height="1" width="57" x="244" y="210" /><rect height="1" width="13" x="0" y="211" /><rect height="1" width="57" x="244" y="211" /><rect height="1" width="13" x="0" y="212" /><rect height="1" width="55" x="245" y="212" /><rect height="1" width="13" x="0" y="213" /><rect height="1" width="55" x="245" y="213" /><rect height="1" width="13" x="0" y="214" /><rect height="1" width="55" x="245" y="214" /><rect height="1" width="13" x="0" y="215" /><rect height="1" width="55" x="245" y="215" /><rect height="1" width="53" x="246" y="216" /><rect height="1" width="53" x="246" y="217" /><rect height="1" width="13" x="470" y="217" /><rect height="1" width="52" x="246" y="218" /><rect height="1" width="19" x="467" y="218" /><rect height="1" width="52" x="246" y="219" /><rect height="1" width="24" x="464" y="219" /><rect height="1" width="52" x="246" y="220" /><rect height="1" width="27" x="463" y="220" /><rect height="1" width="50" x="247" y="221" /><rect height="1" width="30" x="461" y="221" /><rect height="1" width="50" x="247" y="222" /><rect height="1" width="32" x="460" y="222" /><rect height="1" width="49" x="247" y="223" /><rect height="1" width="35" x="458" y="223" /><rect height="1" width="49" x="247" y="224" /><rect height="1" width="37" x="457" y="224" /><rect height="1" width="48" x="247" y="225" /><rect height="1" width="40" x="455" y="225" /><rect height="1" width="48" x="247" y="226" /><rect height="1" width="41" x="454" y="226" /><rect height="1" width="46" x="248" y="227" /><rect height="1" width="43" x="453" y="227" /><rect height="1" width="46" x="248" y="228" /><rect height="1" width="45" x="452" y="228" /><rect height="1" width="45" x="248" y="229" /><rect height="1" width="46" x="451" y="229" /><rect height="1" width="45" x="248" y="230" /><rect height="1" width="48" x="450" y="230" /><rect height="1" width="44" x="248" y="231" /><rect height="1" width="49" x="449" y="231" /><rect height="1" width="43" x="248" y="232" /><rect height="1" width="51" x="448" y="232" /><rect height="1" width="43" x="248" y="233" /><rect height="1" width="52" x="447" y="233" /><rect height="1" width="41" x="249" y="234" /><rect height="1" width="53" x="446" y="234" /><rect height="1" width="40" x="249" y="235" /><rect height="1" width="55" x="445" y="235" /><rect height="1" width="39" x="249" y="236" /><rect height="1" width="56" x="444" y="236" /><rect height="1" width="39" x="249" y="237" /><rect height="1" width="57" x="443" y="237" /><rect height="1" width="38" x="249" y="238" /><rect height="1" width="58" x="442" y="238" /><rect height="1" width="37" x="249" y="239" /><rect height="1" width="59" x="441" y="239" /><rect height="1" width="36" x="249" y="240" /><rect height="1" width="59" x="441" y="240" /><rect height="1" width="34" x="250" y="241" /><rect height="1" width="60" x="440" y="241" /><rect height="1" width="34" x="249" y="242" /><rect height="1" width="61" x="439" y="242" /><rect height="1" width="33" x="249" y="243" /><rect height="1" width="10" x="438" y="243" /><rect height="1" width="51" x="449" y="243" /><rect height="1" width="31" x="250" y="244" /><rect height="1" width="8" x="438" y="244" /><rect height="1" width="49" x="451" y="244" /><rect height="1" width="30" x="250" y="245" /><rect height="1" width="8" x="437" y="245" /><rect height="1" width="48" x="452" y="245" /><rect height="1" width="29" x="250" y="246" /><rect height="1" width="8" x="436" y="246" /><rect height="1" width="46" x="453" y="246" /><rect height="1" width="28" x="250" y="247" /><rect height="1" width="9" x="435" y="247" /><rect height="1" width="46" x="453" y="247" /><rect height="1" width="27" x="250" y="248" /><rect height="1" width="8" x="435" y="248" /><rect height="1" width="46" x="453" y="248" /><rect height="1" width="26" x="250" y="249" /><rect height="1" width="9" x="434" y="249" /><rect height="1" width="45" x="454" y="249" /><rect height="1" width="25" x="250" y="250" /><rect height="1" width="8" x="434" y="250" /><rect height="1" width="44" x="454" y="250" /><rect height="1" width="24" x="250" y="251" /><rect height="1" width="9" x="433" y="251" /><rect height="1" width="43" x="455" y="251" /><rect height="1" width="23" x="250" y="252" /><rect height="1" width="10" x="432" y="252" /><rect height="1" width="42" x="455" y="252" /><rect height="1" width="22" x="250" y="253" /><rect height="1" width="9" x="432" y="253" /><rect height="1" width="41" x="456" y="253" /><rect height="1" width="21" x="250" y="254" /><rect height="1" width="10" x="431" y="254" /><rect height="1" width="40" x="456" y="254" /><rect height="1" width="20" x="250" y="255" /><rect height="1" width="9" x="431" y="255" /><rect height="1" width="38" x="457" y="255" /><rect height="1" width="19" x="250" y="256" /><rect height="1" width="10" x="430" y="256" /><rect height="1" width="36" x="458" y="256" /><rect height="1" width="18" x="250" y="257" /><rect height="1" width="10" x="430" y="257" /><rect height="1" width="34" x="459" y="257" /><rect height="1" width="17" x="250" y="258" /><rect height="1" width="11" x="429" y="258" /><rect height="1" width="32" x="460" y="258" /><rect height="1" width="16" x="250" y="259" /><rect height="1" width="10" x="429" y="259" /><rect height="1" width="30" x="461" y="259" /><rect height="1" width="15" x="250" y="260" /><rect height="1" width="11" x="428" y="260" /><rect height="1" width="28" x="462" y="260" /><rect height="1" width="15" x="250" y="261" /><rect height="1" width="11" x="428" y="261" /><rect height="1" width="24" x="464" y="261" /><rect height="1" width="16" x="250" y="262" /><rect height="1" width="12" x="427" y="262" /><rect height="1" width="20" x="466" y="262" /><rect height="1" width="17" x="250" y="263" /><rect height="1" width="12" x="427" y="263" /><rect height="1" width="15" x="468" y="263" /><rect height="1" width="18" x="250" y="264" /><rect height="1" width="11" x="427" y="264" /><rect height="1" width="7" x="472" y="264" /><rect height="1" width="19" x="250" y="265" /><rect height="1" width="12" x="426" y="265" /><rect height="1" width="20" x="250" y="266" /><rect height="1" width="12" x="426" y="266" /><rect height="1" width="21" x="250" y="267" /><rect height="1" width="12" x="426" y="267" /><rect height="1" width="22" x="250" y="268" /><rect height="1" width="13" x="425" y="268" /><rect height="1" width="23" x="250" y="269" /><rect height="1" width="13" x="425" y="269" /><rect height="1" width="24" x="250" y="270" /><rect height="1" width="13" x="425" y="270" /><rect height="1" width="25" x="250" y="271" /><rect height="1" width="13" x="425" y="271" /><rect height="1" width="26" x="250" y="272" /><rect height="1" width="14" x="424" y="272" /><rect height="1" width="27" x="250" y="273" /><rect height="1" width="14" x="424" y="273" /><rect height="1" width="28" x="250" y="274" /><rect height="1" width="14" x="424" y="274" /><rect height="1" width="29" x="250" y="275" /><rect height="1" width="14" x="424" y="275" /><rect height="1" width="30" x="250" y="276" /><rect height="1" width="15" x="423" y="276" /><rect height="1" width="31" x="250" y="277" /><rect height="1" width="15" x="423" y="277" /><rect height="1" width="32" x="250" y="278" /><rect height="1" width="15" x="423" y="278" /><rect height="1" width="33" x="250" y="279" /><rect height="1" width="15" x="423" y="279" /><rect height="1" width="34" x="250" y="280" /><rect height="1" width="16" x="423" y="280" /><rect height="1" width="35" x="250" y="281" /><rect height="1" width="16" x="423" y="281" /><rect height="1" width="36" x="250" y="282" /><rect height="1" width="17" x="422" y="282" /><rect height="1" width="37" x="250" y="283" /><rect height="1" width="17" x="422" y="283" /><rect height="1" width="38" x="250" y="284" /><rect height="1" width="17" x="422" y="284" /><rect height="1" width="39" x="250" y="285" /><rect height="1" width="17" x="422" y="285" /><rect height="1" width="40" x="250" y="286" /><rect height="1" width="18" x="422" y="286" /><rect height="1" width="41" x="250" y="287" /><rect height="1" width="18" x="422" y="287" /><rect height="1" width="42" x="250" y="288" /><rect height="1" width="18" x="422" y="288" /><rect height="1" width="43" x="250" y="289" /><rect height="1" width="19" x="422" y="289" /><rect height="1" width="44" x="250" y="290" /><rect height="1" width="19" x="422" y="290" /><rect height="1" width="45" x="250" y="291" /><rect height="1" width="19" x="422" y="291" /><rect height="1" width="46" x="250" y="292" /><rect height="1" width="20" x="422" y="292" /><rect height="1" width="47" x="250" y="293" /><rect height="1" width="20" x="422" y="293" /><rect height="1" width="48" x="250" y="294" /><rect height="1" width="21" x="422" y="294" /><rect height="1" width="49" x="250" y="295" /><rect height="1" width="21" x="422" y="295" /><rect height="1" width="50" x="250" y="296" /><rect height="1" width="22" x="422" y="296" /><rect height="1" width="51" x="250" y="297" /><rect height="1" width="23" x="422" y="297" /><rect height="1" width="52" x="250" y="298" /><rect height="1" width="23" x="422" y="298" /><rect height="1" width="53" x="250" y="299" /><rect height="1" width="24" x="422" y="299" /><rect height="1" width="53" x="250" y="300" /><rect height="1" width="25" x="422" y="300" /><rect height="1" width="53" x="250" y="301" /><rect height="1" width="25" x="422" y="301" /><rect height="1" width="53" x="250" y="302" /><rect height="1" width="26" x="422" y="302" /><rect height="1" width="53" x="250" y="303" /><rect height="1" width="27" x="422" y="303" /><rect height="1" width="53" x="250" y="304" /><rect height="1" width="28" x="422" y="304" /><rect height="1" width="53" x="250" y="305" /><rect height="1" width="29" x="422" y="305" /><rect height="1" width="53" x="250" y="306" /><rect height="1" width="30" x="422" y="306" /><rect height="1" width="53" x="250" y="307" /><rect height="1" width="31" x="422" y="307" /><rect height="1" width="53" x="250" y="308" /><rect height="1" width="32" x="422" y="308" /><rect height="1" width="53" x="250" y="309" /><rect height="1" width="33" x="422" y="309" /><rect height="1" width="53" x="250" y="310" /><rect height="1" width="35" x="422" y="310" /><rect height="1" width="53" x="250" y="311" /><rect height="1" width="36" x="422" y="311" /><rect height="1" width="53" x="250" y="312" /><rect height="1" width="37" x="422" y="312" /><rect height="1" width="53" x="250" y="313" /><rect height="1" width="38" x="422" y="313" /><rect height="1" width="53" x="250" y="314" /><rect height="1" width="40" x="422" y="314" /><rect height="1" width="53" x="250" y="315" /><rect height="1" width="42" x="422" y="315" /><rect height="1" width="53" x="250" y="316" /><rect height="1" width="44" x="422" y="316" /><rect height="1" width="53" x="250" y="317" /><rect height="1" width="45" x="422" y="317" /><rect height="1" width="53" x="250" y="318" /><rect height="1" width="47" x="422" y="318" /><rect height="1" width="53" x="250" y="319" /><rect height="1" width="48" x="422" y="319" /><rect height="1" width="53" x="250" y="320" /><rect height="1" width="49" x="422" y="320" /><rect height="1" width="53" x="250" y="321" /><rect height="1" width="50" x="422" y="321" /><rect height="1" width="53" x="250" y="322" /><rect height="1" width="51" x="422" y="322" /><rect height="1" width="53" x="250" y="323" /><rect height="1" width="51" x="422" y="323" /><rect height="1" width="53" x="250" y="324" /><rect height="1" width="52" x="422" y="324" /><rect height="1" width="53" x="250" y="325" /><rect height="1" width="53" x="422" y="325" /><rect height="1" width="53" x="250" y="326" /><rect height="1" width="53" x="422" y="326" /><rect height="1" width="53" x="250" y="327" /><rect height="1" width="53" x="422" y="327" /><rect height="1" width="53" x="250" y="328" /><rect height="1" width="54" x="422" y="328" /><rect height="1" width="53" x="250" y="329" /><rect height="1" width="54" x="422" y="329" /><rect height="1" width="53" x="250" y="330" /><rect height="1" width="55" x="422" y="330" /><rect height="1" width="53" x="250" y="331" /><rect height="1" width="55" x="422" y="331" /><rect height="1" width="53" x="250" y="332" /><rect height="1" width="55" x="422" y="332" /><rect height="1" width="53" x="250" y="333" /><rect height="1" width="55" x="422" y="333" /><rect height="1" width="53" x="250" y="334" /><rect height="1" width="56" x="422" y="334" /><rect height="1" width="53" x="250" y="335" /><rect height="1" width="56" x="422" y="335" /><rect height="1" width="53" x="250" y="336" /><rect height="1" width="56" x="422" y="336" /><rect height="1" width="53" x="250" y="337" /><rect height="1" width="56" x="422" y="337" /><rect height="1" width="53" x="250" y="338" /><rect height="1" width="56" x="422" y="338" /><rect height="1" width="53" x="250" y="339" /><rect height="1" width="56" x="422" y="339" /><rect height="1" width="53" x="250" y="340" /><rect height="1" width="56" x="422" y="340" /><rect height="1" width="53" x="250" y="341" /><rect height="1" width="56" x="422" y="341" /><rect height="1" width="53" x="250" y="342" /><rect height="1" width="56" x="422" y="342" /><rect height="1" width="53" x="250" y="343" /><rect height="1" width="56" x="422" y="343" /><rect height="1" width="53" x="250" y="344" /><rect height="1" width="56" x="422" y="344" /><rect height="1" width="53" x="250" y="345" /><rect height="1" width="56" x="422" y="345" /><rect height="1" width="53" x="250" y="346" /><rect height="1" width="56" x="422" y="346" /><rect height="1" width="53" x="250" y="347" /><rect height="1" width="56" x="422" y="347" /><rect height="1" width="53" x="250" y="348" /><rect height="1" width="56" x="422" y="348" /><rect height="1" width="53" x="250" y="349" /><rect height="1" width="56" x="422" y="349" /><rect height="1" width="53" x="250" y="350" /><rect height="1" width="56" x="422" y="350" /><rect height="1" width="53" x="250" y="351" /><rect height="1" width="56" x="422" y="351" /><rect height="1" width="53" x="250" y="352" /><rect height="1" width="56" x="422" y="352" /><rect height="1" width="53" x="250" y="353" /><rect height="1" width="56" x="422" y="353" /><rect height="1" width="53" x="250" y="354" /><rect height="1" width="56" x="422" y="354" /><rect height="1" width="53" x="250" y="355" /><rect height="1" width="56" x="422" y="355" /><rect height="1" width="53" x="250" y="356" /><rect height="1" width="56" x="422" y="356" /><rect height="1" width="53" x="250" y="357" /><rect height="1" width="55" x="422" y="357" /><rect height="1" width="53" x="250" y="358" /><rect height="1" width="55" x="422" y="358" /><rect height="1" width="53" x="250" y="359" /><rect height="1" width="55" x="422" y="359" /><rect height="1" width="53" x="250" y="360" /><rect height="1" width="55" x="422" y="360" /><rect height="1" width="53" x="250" y="361" /><rect height="1" width="55" x="422" y="361" /><rect height="1" width="53" x="250" y="362" /><rect height="1" width="55" x="422" y="362" /><rect height="1" width="53" x="250" y="363" /><rect height="1" width="55" x="422" y="363" /><rect height="1" width="53" x="250" y="364" /><rect height="1" width="55" x="422" y="364" /><rect height="1" width="53" x="250" y="365" /><rect height="1" width="54" x="422" y="365" /><rect height="1" width="53" x="250" y="366" /><rect height="1" width="54" x="422" y="366" /><rect height="1" width="53" x="250" y="367" /><rect height="1" width="54" x="422" y="367" /><rect height="1" width="53" x="250" y="368" /><rect height="1" width="54" x="422" y="368" /><rect height="1" width="53" x="250" y="369" /><rect height="1" width="54" x="422" y="369" /><rect height="1" width="53" x="250" y="370" /><rect height="1" width="54" x="422" y="370" /><rect height="1" width="53" x="250" y="371" /><rect height="1" width="53" x="422" y="371" /><rect height="1" width="53" x="250" y="372" /><rect height="1" width="53" x="422" y="372" /><rect height="1" width="53" x="250" y="373" /><rect height="1" width="53" x="422" y="373" /><rect height="1" width="53" x="250" y="374" /><rect height="1" width="53" x="422" y="374" /><rect height="1" width="53" x="250" y="375" /><rect height="1" width="53" x="422" y="375" /><rect height="1" width="53" x="250" y="376" /><rect height="1" width="52" x="422" y="376" /><rect height="1" width="53" x="250" y="377" /><rect height="1" width="52" x="422" y="377" /><rect height="1" width="53" x="250" y="378" /><rect height="1" width="52" x="422" y="378" /><rect height="1" width="53" x="250" y="379" /><rect height="1" width="52" x="422" y="379" /><rect height="1" width="53" x="250" y="380" /><rect height="1" width="52" x="422" y="380" /><rect height="1" width="53" x="250" y="381" /><rect height="1" width="51" x="422" y="381" /><rect height="1" width="53" x="250" y="382" /><rect height="1" width="51" x="422" y="382" /><rect height="1" width="53" x="250" y="383" /><rect height="1" width="51" x="422" y="383" /><rect height="1" width="53" x="250" y="384" /><rect height="1" width="50" x="422" y="384" /><rect height="1" width="53" x="250" y="385" /><rect height="1" width="50" x="422" y="385" /><rect height="1" width="53" x="250" y="386" /><rect height="1" width="50" x="422" y="386" /><rect height="1" width="53" x="250" y="387" /><rect height="1" width="50" x="422" y="387" /><rect height="1" width="53" x="250" y="388" /><rect height="1" width="49" x="422" y="388" /><rect height="1" width="53" x="250" y="389" /><rect height="1" width="49" x="422" y="389" /><rect height="1" width="53" x="250" y="390" /><rect height="1" width="49" x="422" y="390" /><rect height="1" width="53" x="250" y="391" /><rect height="1" width="49" x="422" y="391" /><rect height="1" width="53" x="250" y="392" /><rect height="1" width="48" x="422" y="392" /><rect height="1" width="53" x="250" y="393" /><rect height="1" width="48" x="422" y="393" /><rect height="1" width="53" x="250" y="394" /><rect height="1" width="47" x="422" y="394" /><rect height="1" width="53" x="250" y="395" /><rect height="1" width="47" x="422" y="395" /><rect height="1" width="53" x="250" y="396" /><rect height="1" width="47" x="422" y="396" /><rect height="1" width="53" x="250" y="397" /><rect height="1" width="46" x="422" y="397" /><rect height="1" width="53" x="250" y="398" /><rect height="1" width="46" x="422" y="398" /><rect height="1" width="53" x="250" y="399" /><rect height="1" width="46" x="422" y="399" /><rect height="1" width="53" x="250" y="400" /><rect height="1" width="45" x="422" y="400" /><rect height="1" width="53" x="250" y="401" /><rect height="1" width="45" x="422" y="401" /><rect height="1" width="53" x="250" y="402" /><rect height="1" width="45" x="422" y="402" /><rect height="1" width="53" x="250" y="403" /><rect height="1" width="44" x="422" y="403" /><rect height="1" width="53" x="250" y="404" /><rect height="1" width="44" x="422" y="404" /><rect height="1" width="53" x="250" y="405" /><rect height="1" width="44" x="422" y="405" /><rect height="1" width="53" x="250" y="406" /><rect height="1" width="43" x="422" y="406" /><rect height="1" width="53" x="250" y="407" /><rect height="1" width="43" x="422" y="407" /><rect height="1" width="53" x="250" y="408" /><rect height="1" width="42" x="422" y="408" /><rect height="1" width="53" x="250" y="409" /><rect height="1" width="42" x="422" y="409" /><rect height="1" width="53" x="250" y="410" /><rect height="1" width="42" x="422" y="410" /><rect height="1" width="53" x="250" y="411" /><rect height="1" width="41" x="422" y="411" /><rect height="1" width="53" x="250" y="412" /><rect height="1" width="42" x="421" y="412" /><rect height="1" width="53" x="250" y="413" /><rect height="1" width="41" x="421" y="413" /><rect height="1" width="53" x="250" y="414" /><rect height="1" width="41" x="421" y="414" /><rect height="1" width="53" x="250" y="415" /><rect height="1" width="40" x="421" y="415" /><rect height="1" width="53" x="250" y="416" /><rect height="1" width="40" x="421" y="416" /><rect height="1" width="53" x="250" y="417" /><rect height="1" width="40" x="421" y="417" /><rect height="1" width="53" x="250" y="418" /><rect height="1" width="39" x="421" y="418" /><rect height="1" width="53" x="250" y="419" /><rect height="1" width="40" x="420" y="419" /><rect height="1" width="53" x="250" y="420" /><rect height="1" width="39" x="420" y="420" /><rect height="1" width="53" x="250" y="421" /><rect height="1" width="39" x="420" y="421" /><rect height="1" width="53" x="250" y="422" /><rect height="1" width="38" x="420" y="422" /><rect height="1" width="53" x="250" y="423" /><rect height="1" width="39" x="419" y="423" /><rect height="1" width="53" x="250" y="424" /><rect height="1" width="38" x="419" y="424" /><rect height="1" width="53" x="250" y="425" /><rect height="1" width="38" x="419" y="425" /><rect height="1" width="53" x="250" y="426" /><rect height="1" width="37" x="419" y="426" /><rect height="1" width="53" x="250" y="427" /><rect height="1" width="37" x="418" y="427" /><rect height="1" width="53" x="250" y="428" /><rect height="1" width="37" x="418" y="428" /><rect height="1" width="53" x="250" y="429" /><rect height="1" width="36" x="418" y="429" /><rect height="1" width="53" x="250" y="430" /><rect height="1" width="37" x="417" y="430" /><rect height="1" width="53" x="250" y="431" /><rect height="1" width="36" x="417" y="431" /><rect height="1" width="53" x="250" y="432" /><rect height="1" width="36" x="417" y="432" /><rect height="1" width="53" x="250" y="433" /><rect height="1" width="36" x="416" y="433" /><rect height="1" width="53" x="250" y="434" /><rect height="1" width="35" x="416" y="434" /><rect height="1" width="53" x="250" y="435" /><rect height="1" width="36" x="415" y="435" /><rect height="1" width="53" x="250" y="436" /><rect height="1" width="35" x="415" y="436" /><rect height="1" width="53" x="250" y="437" /><rect height="1" width="35" x="414" y="437" /><rect height="1" width="53" x="250" y="438" /><rect height="1" width="35" x="414" y="438" /><rect height="1" width="53" x="250" y="439" /><rect height="1" width="35" x="413" y="439" /><rect height="1" width="53" x="250" y="440" /><rect height="1" width="34" x="413" y="440" /><rect height="1" width="53" x="250" y="441" /><rect height="1" width="35" x="412" y="441" /><rect height="1" width="53" x="250" y="442" /><rect height="1" width="34" x="412" y="442" /><rect height="1" width="53" x="250" y="443" /><rect height="1" width="34" x="411" y="443" /><rect height="1" width="54" x="250" y="444" /><rect height="1" width="34" x="410" y="444" /><rect height="1" width="54" x="250" y="445" /><rect height="1" width="34" x="410" y="445" /><rect height="1" width="54" x="250" y="446" /><rect height="1" width="34" x="409" y="446" /><rect height="1" width="54" x="250" y="447" /><rect height="1" width="33" x="409" y="447" /><rect height="1" width="54" x="250" y="448" /><rect height="1" width="33" x="408" y="448" /><rect height="1" width="55" x="250" y="449" /><rect height="1" width="33" x="407" y="449" /><rect height="1" width="55" x="250" y="450" /><rect height="1" width="34" x="406" y="450" /><rect height="1" width="55" x="250" y="451" /><rect height="1" width="33" x="406" y="451" /><rect height="1" width="56" x="250" y="452" /><rect height="1" width="33" x="405" y="452" /><rect height="1" width="56" x="250" y="453" /><rect height="1" width="33" x="404" y="453" /><rect height="1" width="57" x="250" y="454" /><rect height="1" width="33" x="403" y="454" /><rect height="1" width="57" x="250" y="455" /><rect height="1" width="33" x="402" y="455" /><rect height="1" width="58" x="250" y="456" /><rect height="1" width="32" x="402" y="456" /><rect height="1" width="58" x="250" y="457" /><rect height="1" width="32" x="401" y="457" /><rect height="1" width="59" x="250" y="458" /><rect height="1" width="33" x="400" y="458" /><rect height="1" width="59" x="250" y="459" /><rect height="1" width="33" x="399" y="459" /><rect height="1" width="60" x="250" y="460" /><rect height="1" width="32" x="398" y="460" /><rect height="1" width="60" x="250" y="461" /><rect height="1" width="32" x="397" y="461" /><rect height="1" width="61" x="250" y="462" /><rect height="1" width="33" x="395" y="462" /><rect height="1" width="62" x="250" y="463" /><rect height="1" width="33" x="394" y="463" /><rect height="1" width="63" x="250" y="464" /><rect height="1" width="33" x="393" y="464" /><rect height="1" width="63" x="250" y="465" /><rect height="1" width="33" x="392" y="465" /><rect height="1" width="64" x="250" y="466" /><rect height="1" width="33" x="391" y="466" /><rect height="1" width="65" x="250" y="467" /><rect height="1" width="33" x="389" y="467" /><rect height="1" width="66" x="250" y="468" /><rect height="1" width="33" x="388" y="468" /><rect height="1" width="67" x="250" y="469" /><rect height="1" width="34" x="386" y="469" /><rect height="1" width="68" x="250" y="470" /><rect height="1" width="34" x="385" y="470" /><rect height="1" width="69" x="250" y="471" /><rect height="1" width="34" x="383" y="471" /><rect height="1" width="70" x="250" y="472" /><rect height="1" width="35" x="381" y="472" /><rect height="1" width="71" x="250" y="473" /><rect height="1" width="36" x="379" y="473" /><rect height="1" width="73" x="250" y="474" /><rect height="1" width="36" x="377" y="474" /><rect height="1" width="74" x="250" y="475" /><rect height="1" width="37" x="375" y="475" /><rect height="1" width="76" x="250" y="476" /><rect height="1" width="37" x="373" y="476" /><rect height="1" width="77" x="250" y="477" /><rect height="1" width="39" x="370" y="477" /><rect height="1" width="79" x="250" y="478" /><rect height="1" width="40" x="367" y="478" /><rect height="1" width="82" x="250" y="479" /><rect height="1" width="41" x="364" y="479" /><rect height="1" width="84" x="250" y="480" /><rect height="1" width="44" x="360" y="480" /><rect height="1" width="88" x="250" y="481" /><rect height="1" width="47" x="355" y="481" /><rect height="1" width="150" x="250" y="482" /><rect height="1" width="148" x="250" y="483" /><rect height="1" width="146" x="250" y="484" /><rect height="1" width="144" x="250" y="485" /><rect height="1" width="142" x="250" y="486" /><rect height="1" width="139" x="250" y="487" /><rect height="1" width="137" x="250" y="488" /><rect height="1" width="134" x="250" y="489" /><rect height="1" width="131" x="250" y="490" /><rect height="1" width="127" x="250" y="491" /><rect height="1" width="124" x="250" y="492" /><rect height="1" width="119" x="250" y="493" /><rect height="1" width="114" x="250" y="494" /><rect height="1" width="105" x="250" y="495" /></g></svg>