<svg xmlns="http://www.w3.org/2000/svg" viewBox="0 0 500 496" width="500" height="496">
  <defs>
    <style>
      @keyframes draw {
        to { stroke-dashoffset: 0; }
      }
      @keyframes fadeIn {
        from { opacity: 0; }
        to { opacity: 1; }
      }
      .draw-path {
        fill: none;
        stroke: #1d372d;
        stroke-width: 2;
        stroke-linecap: round;
        stroke-linejoin: round;
        animation: draw forwards;
      }
      .fill-group {
        opacity: 0;
        animation: fadeIn 0.5s ease forwards;
        animation-delay: 3s;
      }
    </style>
  </defs>
  <g class="draw-group">
    <path class="draw-path" d="M 302,0 L 302,199 L 301,207 L 300,211 L 299,215 L 298,218 L 296,221 L 296,223 L 294,227 L 292,230 L 290,233 L 287,237 L 265,259 L 265,262 L 302,299 L 302,443 L 303,447 L 304,450 L 305,453 L 308,459 L 310,461 L 311,464 L 321,474 L 324,476 L 330,479 L 333,480 L 337,481 L 344,482 L 349,482 L 356,481 L 361,480 L 364,479 L 367,478 L 370,477 L 373,476 L 378,473 L 380,473 L 382,471 L 387,469 L 390,467 L 395,463 L 403,455 L 406,451 L 408,448 L 410,445 L 416,433 L 417,430 L 418,427 L 419,424 L 420,419 L 421,413 L 421,285 L 422,278 L 423,273 L 424,269 L 425,266 L 427,263 L 427,261 L 431,253 L 433,250 L 435,247 L 438,243 L 441,239 L 454,226 L 459,222 L 462,220 L 468,217 L 471,216 L 481,216 L 484,217 L 486,218 L 489,220 L 494,225 L 497,229 L 498,232 L 499,235 L 498,232 L 497,229 L 496,227 L 493,223 L 491,221 L 488,219 L 484,217 L 481,216 L 471,216 L 468,217 L 460,221 L 457,223 L 452,227 L 442,237 L 439,241 L 436,245 L 434,248 L 432,251 L 427,261 L 427,263 L 425,266 L 424,269 L 423,273 L 422,278 L 421,285 L 421,413 L 420,419 L 419,424 L 418,427 L 417,430 L 416,433 L 411,443 L 409,446 L 407,449 L 404,453 L 393,464 L 388,468 L 385,470 L 373,476 L 370,477 L 367,478 L 364,479 L 361,480 L 356,481 L 349,482 L 344,482 L 337,481 L 333,480 L 330,479 L 326,477 L 323,475 L 310,462 L 309,459 L 307,457 L 305,453 L 304,450 L 303,447 L 302,443 L 302,298 L 265,260 L 286,239 L 289,235 L 291,232 L 293,229 L 296,223 L 296,221 L 298,218 L 299,215 L 300,211 L 301,207 L 302,199 Z" 
          style="stroke-dasharray: 1923; stroke-dashoffset: 1923; animation-delay: 0.000s; animation-duration: 1.225s;" />
    <path class="draw-path" d="M 14,51 L 12,53 L 11,215 L 0,215 L 12,215 L 12,53 L 14,51 L 43,51 L 61,52 L 69,53 L 76,54 L 81,55 L 86,56 L 90,57 L 94,58 L 98,59 L 101,60 L 104,61 L 107,62 L 110,63 L 113,64 L 116,65 L 119,67 L 121,67 L 130,72 L 132,72 L 136,74 L 138,76 L 145,79 L 147,81 L 150,82 L 153,84 L 156,86 L 159,88 L 162,90 L 166,93 L 170,96 L 176,101 L 185,109 L 192,116 L 201,126 L 206,132 L 209,136 L 212,140 L 214,143 L 216,146 L 218,149 L 220,152 L 221,155 L 223,157 L 227,166 L 229,168 L 229,170 L 233,177 L 233,179 L 235,182 L 235,184 L 237,187 L 238,190 L 239,193 L 240,196 L 241,199 L 242,202 L 243,206 L 244,210 L 245,214 L 246,219 L 247,225 L 248,231 L 249,240 L 249,495 L 249,240 L 248,231 L 247,225 L 246,219 L 245,214 L 244,210 L 243,206 L 242,202 L 241,199 L 240,196 L 239,193 L 238,190 L 237,187 L 235,184 L 235,182 L 233,179 L 233,177 L 229,170 L 229,168 L 228,166 L 226,164 L 222,155 L 220,153 L 219,150 L 217,147 L 215,144 L 213,141 L 211,138 L 208,134 L 205,130 L 200,124 L 191,114 L 187,110 L 178,102 L 172,97 L 168,94 L 164,91 L 161,89 L 158,87 L 155,85 L 152,83 L 149,82 L 147,80 L 140,77 L 138,75 L 132,72 L 130,72 L 121,67 L 119,67 L 116,65 L 113,64 L 110,63 L 107,62 L 104,61 L 101,60 L 98,59 L 94,58 L 90,57 L 86,56 L 81,55 L 76,54 L 69,53 L 61,52 L 43,51 Z" 
          style="stroke-dasharray: 1809; stroke-dashoffset: 1809; animation-delay: 1.225s; animation-duration: 1.152s;" />
    <path class="draw-path" d="M 448,242 L 446,243 L 443,246 L 442,248 L 442,250 L 440,253 L 439,256 L 438,259 L 437,264 L 437,279 L 438,284 L 439,288 L 444,298 L 446,301 L 456,311 L 459,313 L 462,315 L 465,316 L 468,318 L 472,322 L 474,325 L 475,327 L 476,330 L 477,334 L 477,355 L 476,364 L 475,370 L 474,375 L 473,380 L 472,384 L 471,387 L 470,391 L 469,394 L 468,397 L 467,400 L 466,403 L 464,406 L 464,408 L 462,411 L 462,413 L 454,429 L 452,432 L 450,435 L 448,438 L 446,441 L 443,445 L 439,450 L 423,466 L 418,470 L 414,473 L 411,475 L 408,477 L 405,479 L 402,480 L 400,482 L 394,485 L 392,485 L 389,487 L 386,488 L 383,489 L 380,490 L 377,491 L 373,492 L 368,493 L 362,494 L 353,495 L 362,494 L 368,493 L 373,492 L 377,491 L 380,490 L 383,489 L 386,488 L 389,487 L 392,485 L 394,485 L 402,481 L 404,479 L 407,478 L 410,476 L 413,474 L 416,472 L 420,469 L 425,465 L 438,452 L 442,447 L 445,443 L 447,440 L 449,437 L 451,434 L 453,431 L 462,413 L 462,411 L 464,408 L 464,406 L 466,403 L 467,400 L 468,397 L 469,394 L 470,391 L 471,387 L 472,384 L 473,380 L 474,375 L 475,370 L 476,364 L 477,355 L 477,334 L 476,330 L 475,327 L 473,323 L 471,321 L 469,319 L 467,317 L 464,316 L 461,314 L 458,312 L 445,299 L 443,296 L 439,288 L 438,284 L 437,279 L 437,264 L 438,259 L 439,256 L 440,253 L 442,250 L 442,248 L 444,245 L 446,243 L 448,242 L 450,243 L 452,245 L 453,247 L 453,249 L 455,253 L 457,256 L 460,259 L 463,261 L 465,262 L 468,263 L 473,264 L 478,264 L 483,263 L 486,262 L 488,261 L 491,259 L 495,255 L 498,249 L 499,245 L 498,249 L 496,253 L 489,260 L 486,262 L 483,263 L 478,264 L 473,264 L 468,263 L 465,262 L 462,260 L 456,254 L 454,251 L 453,249 L 453,247 L 452,245 L 450,243 Z" 
          style="stroke-dasharray: 977; stroke-dashoffset: 977; animation-delay: 2.378s; animation-duration: 0.622s;" />
  </g>
  <g class="fill-group">
    <path class="fill-path" d="M 0,0 L 0,215 L 12,215 L 13,51 L 44,51 L 62,52 L 70,53 L 77,54 L 82,55 L 87,56 L 91,57 L 95,58 L 99,59 L 102,60 L 105,61 L 108,62 L 111,63 L 114,64 L 117,65 L 120,67 L 122,67 L 131,72 L 133,72 L 137,74 L 139,76 L 146,79 L 148,81 L 151,82 L 154,84 L 157,86 L 160,88 L 163,90 L 167,93 L 171,96 L 177,101 L 186,109 L 192,115 L 201,125 L 206,131 L 209,135 L 212,139 L 214,142 L 216,145 L 218,148 L 220,151 L 221,154 L 223,156 L 227,165 L 229,167 L 230,169 L 230,171 L 234,178 L 234,180 L 236,183 L 236,185 L 238,188 L 239,191 L 240,194 L 241,197 L 242,200 L 243,203 L 244,207 L 245,211 L 246,215 L 247,220 L 248,226 L 249,232 L 250,241 L 250,495 L 352,495 L 361,494 L 367,493 L 372,492 L 376,491 L 379,490 L 382,489 L 385,488 L 388,487 L 391,485 L 393,485 L 401,481 L 403,479 L 406,478 L 409,476 L 412,474 L 415,472 L 419,469 L 424,465 L 438,451 L 442,446 L 445,442 L 447,439 L 449,436 L 451,433 L 453,430 L 462,412 L 462,410 L 464,407 L 464,405 L 466,402 L 467,399 L 468,396 L 469,393 L 470,390 L 471,386 L 472,383 L 473,379 L 474,374 L 475,369 L 476,363 L 477,354 L 477,335 L 476,331 L 475,328 L 473,324 L 471,321 L 469,319 L 466,317 L 463,316 L 460,314 L 457,312 L 445,300 L 443,297 L 439,289 L 438,285 L 437,280 L 437,263 L 438,258 L 439,255 L 440,252 L 442,249 L 442,247 L 444,245 L 447,242 L 449,242 L 454,248 L 454,250 L 455,252 L 457,255 L 461,259 L 464,261 L 466,262 L 469,263 L 474,264 L 477,264 L 482,263 L 485,262 L 487,261 L 490,259 L 495,254 L 498,248 L 499,244 L 499,236 L 498,233 L 497,230 L 496,228 L 493,224 L 490,221 L 487,219 L 485,218 L 482,217 L 470,217 L 467,218 L 461,221 L 458,223 L 453,227 L 442,238 L 439,242 L 436,246 L 434,249 L 432,252 L 428,260 L 428,262 L 426,265 L 425,268 L 424,272 L 423,277 L 422,284 L 422,412 L 421,418 L 420,423 L 419,426 L 418,429 L 417,432 L 411,444 L 409,447 L 407,450 L 404,454 L 394,464 L 389,468 L 386,470 L 381,472 L 379,474 L 377,474 L 372,477 L 369,478 L 366,479 L 363,480 L 360,481 L 355,482 L 348,483 L 345,483 L 338,482 L 334,481 L 331,480 L 325,477 L 322,475 L 310,463 L 309,460 L 307,458 L 305,454 L 304,451 L 303,448 L 302,444 L 302,299 L 264,260 L 286,238 L 289,234 L 291,231 L 293,228 L 296,222 L 296,220 L 298,217 L 299,214 L 300,210 L 301,206 L 302,198 L 302,0 Z" fill="#1d372d" />
  </g>
</svg>