<?xml version="1.0" encoding="UTF-8"?>
<svg id="Layer_1" data-name="Layer 1" xmlns="http://www.w3.org/2000/svg" viewBox="0 0 1749.47 448.1">
  <defs>
    <style>
      .cls-1 {
        fill: #fff;
      }
    </style>
  </defs>
  <path class="cls-1" d="M414.81,317.21c-3.25-1.67-6.25-4.03-9-7.08-2.76-3.05-6-7.13-9.74-12.25-2.76-3.94-6.25-9.34-10.48-16.23-4.23-6.89-8.96-14.91-14.17-24.06-5.21-9.15-10.87-19.23-16.97-30.26-6.1-11.02-12.3-22.53-18.59-34.53,8.46-3.15,16.18-7.23,23.17-12.25,6.98-5.02,13.03-10.82,18.15-17.42,5.11-6.59,9.1-13.92,11.95-21.99,2.85-8.07,4.28-16.62,4.28-25.68,0-13.58-2.95-24.74-8.85-33.5-5.9-8.75-13.63-15.69-23.17-20.81-9.54-5.12-20.22-8.66-32.02-10.63-11.81-1.97-23.61-2.95-35.42-2.95-8.26,0-16.38.54-24.35,1.62-7.97,1.08-15.89,1.62-23.76,1.62-4.72,0-9.64-.05-14.76-.15-5.12-.09-10.14-.15-15.05-.15s-9.5-.05-13.72-.15c-4.24-.1-7.92-.15-11.07-.15l-.59,10.63c8.26.4,14.85,1.08,19.78,2.07,4.92.99,8.61,2.51,11.07,4.57,2.46,2.07,4.08,4.68,4.87,7.82.78,3.15,1.18,7.08,1.18,11.81v198.65c0,7.48-.44,13.53-1.33,18.15-.88,4.63-2.61,8.27-5.17,10.92-2.56,2.66-6.15,4.63-10.77,5.9-4.63,1.28-10.77,2.21-18.45,2.8h0s-6.04.01-6.04.01c-7.84,0-15.21-1.5-22.12-4.49-14.06-5.99-24.19-16.12-30.41-30.41-3-7.14-4.49-14.86-4.49-23.16v-80.53c0-11.98-3.11-22.64-9.33-31.97-6.22-9.33-13.25-16.3-21.08-20.91-3-1.61-5.99-2.42-8.99-2.42-6.45,0-11.4,2.88-14.86,8.64-1.61,2.76-2.42,5.65-2.42,8.64,0,6.69,2.88,11.75,8.64,15.21,2.99,1.61,5.99,2.42,8.99,2.42,2.3,0,4.49-.46,6.57-1.38,5.06-2.3,8.41-6.22,10.02-11.75.46-1.61,1.61-2.42,3.46-2.42,1.15,0,2.07.58,2.76,1.73,3.22,5.99,4.84,12.33,4.84,19.01,0,2.76-.23,5.53-.69,8.29-1.61,9.45-7.6,17.4-17.97,23.85-3.69,1.62-6.39,4.15-8.12,7.6-1.73,3.46-2.59,7.14-2.59,11.06,0,13.6,2.3,27.08,6.91,40.44,9.44,28.8,26.03,49.65,49.77,62.55,11.98,6.45,25.69,9.8,41.13,10.02h7.58c2.57-.01,5.57-.06,9.08-.15,3.94-.1,8.07-.15,12.4-.15s9.05-.05,13.58-.15c4.52-.1,8.66-.15,12.4-.15,9.45,0,19.28.1,29.52.3,10.23.2,20.07.3,29.52.3l.59-10.63c-9.25-.19-16.43-.84-21.55-1.92-5.12-1.08-9-2.7-11.66-4.87-2.66-2.16-4.28-4.87-4.87-8.12-.59-3.25-.89-7.23-.89-11.95v-93.86c3.15.2,5.85.35,8.12.44,2.26.1,4.18.15,5.76.15h8.85c4.53,0,8.16.3,10.92.88,2.75.59,4.97,1.43,6.64,2.51,1.67,1.08,3.05,2.41,4.13,3.98,1.08,1.58,2.21,3.35,3.4,5.31,7.48,12.79,14.66,25.38,21.55,37.78,6.89,12.4,13.18,23.86,18.89,34.39,5.71,10.53,10.63,19.78,14.76,27.75,4.13,7.97,7.18,14.02,9.15,18.15,2.75-.19,5.76-.34,9-.44,3.25-.1,6.24-.15,9-.15,8.85,0,18.05.1,27.6.3,9.54.2,17.27.3,23.17.3l.59-10.63c-6.89-.59-12.5-1.28-16.82-2.07-4.33-.78-8.12-2.02-11.36-3.69ZM280.36,188.67h-9.45c-1.58,0-3.15-.05-4.72-.15-1.58-.1-3.15-.24-4.72-.44v-99.77c0-3.93.19-7.48.59-10.62.39-3.15,1.38-5.8,2.95-7.97,1.57-2.16,4.08-3.79,7.53-4.87,3.44-1.08,8.21-1.62,14.32-1.62,20.07,0,36.16,4.63,48.26,13.87,12.1,9.25,18.15,23.91,18.15,43.98,0,23.81-6.34,41.03-19.04,51.66-12.69,10.62-30.65,15.94-53.87,15.94Z"/>
  <path class="cls-1" d="M713.96,83.59c-12.79-12.59-28.19-22.29-46.19-29.08-18-6.79-37.73-10.18-59.18-10.18s-41.72,3.74-59.62,11.21c-17.91,7.48-33.26,17.91-46.05,31.29-12.79,13.38-22.73,29.27-29.81,47.67-7.08,18.4-10.63,38.52-10.63,60.36s3.59,41.96,10.77,59.77c7.18,17.81,17.22,33.02,30.11,45.6,12.89,12.6,28.29,22.29,46.19,29.08,17.9,6.79,37.58,10.18,59.03,10.18s41.72-3.74,59.62-11.22c17.9-7.48,33.25-17.9,46.05-31.29,12.79-13.38,22.73-29.27,29.81-47.67,7.08-18.4,10.63-38.52,10.63-60.36s-3.59-41.96-10.78-59.77c-7.18-17.81-17.17-33.01-29.96-45.6ZM705.41,257.3c-5.71,15.64-13.33,28.39-22.88,38.22-9.55,9.84-20.56,16.97-33.06,21.4-12.5,4.43-25.53,6.64-39.11,6.64-12.59,0-25.24-2.31-37.93-6.94-12.69-4.62-24.16-12.4-34.39-23.32-10.23-10.92-18.59-25.34-25.09-43.24-6.49-17.9-9.74-40.04-9.74-66.41,0-22.43,2.85-41.47,8.56-57.11,5.71-15.64,13.33-28.38,22.88-38.22,9.54-9.84,20.56-16.97,33.06-21.4,12.49-4.43,25.53-6.64,39.11-6.64,12.59,0,25.24,2.31,37.93,6.94,12.69,4.63,24.15,12.4,34.39,23.32,10.23,10.92,18.6,25.34,25.09,43.24,6.49,17.91,9.74,40.05,9.74,66.41,0,22.43-2.86,41.47-8.56,57.12Z"/>
  <path class="cls-1" d="M1057.54,50.68c-9.44.3-18.5.44-27.16.44-10.62,0-20.81-.1-30.55-.3-9.74-.2-18.06-.3-24.94-.3l-.59,10.63c9.64.59,17.51,1.47,23.61,2.66,6.1,1.18,10.87,3.25,14.32,6.2,3.44,2.95,5.8,7.08,7.08,12.4,1.28,5.31,1.92,12.3,1.92,20.96v123.97c0,15.94-2.21,29.57-6.64,40.88-4.43,11.32-10.38,20.56-17.86,27.75-7.48,7.18-16.04,12.4-25.68,15.64-9.64,3.25-19.78,4.87-30.4,4.87s-20.57-1.52-30.4-4.57c-9.84-3.05-18.65-7.77-26.42-14.17-7.78-6.39-14.02-14.66-18.74-24.79-4.72-10.13-7.08-22.29-7.08-36.45V99.82c0-7.28.54-13.33,1.62-18.15,1.08-4.82,3.1-8.71,6.05-11.66s7.08-5.11,12.4-6.49c5.31-1.37,12.2-2.36,20.66-2.95l-.88-10.04c-3.35,0-7.23.05-11.66.15-4.43.1-9.11.15-14.02.15s-9.79.05-14.61.15c-4.82.1-9.2.15-13.13.15-4.92,0-10.18-.05-15.79-.15-5.61-.1-11.17-.15-16.68-.15s-10.38-.05-15.2-.15c-4.83-.09-9-.15-12.55-.15l-.59,10.63c8.85.4,15.94,1.18,21.25,2.36,5.31,1.18,9.39,2.9,12.25,5.17,2.85,2.26,4.72,5.07,5.61,8.41.89,3.35,1.33,7.38,1.33,12.1v157.62c0,15.75,2.85,29.42,8.56,41.03,5.71,11.61,13.33,21.25,22.88,28.93,9.54,7.68,20.51,13.39,32.91,17.12,12.4,3.74,25.39,5.61,38.96,5.61s27.3-1.92,40.58-5.76c13.28-3.83,25.19-10.04,35.71-18.59,10.52-8.56,19.04-19.53,25.53-32.91,6.49-13.38,9.74-29.71,9.74-49v-124.86c0-10.63.59-18.99,1.77-25.09,1.18-6.1,3.4-10.72,6.64-13.87,3.25-3.14,7.57-5.26,12.99-6.35,5.41-1.08,12.44-2.01,21.1-2.8l-.3-10.04c-6.3,0-14.17.15-23.61.44Z"/>
  <path class="cls-1" d="M1354.19,83.59c-12.81-12.6-28.2-22.29-46.2-29.08-18-6.79-37.72-10.17-59.18-10.17s-41.73,3.74-59.61,11.22c-17.91,7.48-33.27,17.91-46.06,31.27-12.79,13.38-22.72,29.22-29.82,47.54-7.07,18.29-10.62,38.37-10.62,60.21,0,19.1,2.76,36.56,8.26,52.4,5.53,15.84,13.24,29.82,23.17,41.92,9.93,12.1,21.79,22.17,35.58,30.25,12.45,7.29,21.38,9.65,45.44,17.12,32.01,9.94,21.99,7.57,55.28,17.78,12.56,3.85,29.66,9,50.18,14.87,9.79,2.62,16.48,7.77,20.07,15.45,4.43,10.06,11.48,16.38,21.14,18.97,2.88.77,5.4.54,7.55-.7,2.15-1.24,3.52-2.99,4.13-5.25.64-2.38.34-4.65-.9-6.8-1.24-2.15-3.06-3.54-5.44-4.18-2.76-.74-5.32-.21-7.68,1.57-1.53,1.2-2.55,2.75-3.05,4.63-.2.75-.3,1.6-.28,2.55l-.1.38c-.17.63-.47,1.02-.92,1.17-.44.15-.85.18-1.23.07l-.7-.39c-3.3-4.24-5.38-9.03-6.24-14.38-3.34-13.13-11.45-24.04-24.32-32.72-5.92-4-12.27-6.91-19.04-8.73l-22.95-6.14c14.68-3.2,28.37-8.38,41.07-15.56,14.96-8.45,27.84-19.15,38.68-32.03,10.81-12.89,19.29-27.65,25.39-44.27,6.1-16.62,9.15-34.58,9.15-53.87,0-22.03-3.6-41.92-10.77-59.61-7.19-17.72-17.17-32.87-29.96-45.46ZM1345.93,257c-5.53,15.65-12.91,28.34-22.15,38.08-9.24,9.74-20.03,16.81-32.32,21.24-12.29,4.43-25.25,6.65-38.82,6.65-12.6,0-25.39-2.31-38.37-6.93-12.98-4.62-24.7-12.34-35.13-23.17-10.43-10.81-18.98-25.2-25.67-43.08-6.69-17.91-10.03-40.06-10.03-66.42,0-22.43,2.83-41.46,8.55-57.11,5.72-15.65,13.34-28.34,22.89-38.08,9.53-9.74,20.55-16.81,33.06-21.24,12.48-4.43,25.53-6.64,39.11-6.64,12.57,0,25.22,2.31,37.92,6.93,12.69,4.62,24.15,12.36,34.39,23.17,10.24,10.84,18.6,25.2,25.1,43.11,6.48,17.89,9.74,40.04,9.74,66.4,0,22.43-2.76,41.46-8.26,57.11Z"/>
  <path class="cls-1" d="M1676.51,50.24c-7.28,0-14.81.1-22.58.3-7.78.2-15.3.3-22.58.3-8.85,0-17.32-.1-25.38-.3-8.07-.2-15.75-.3-23.02-.3l-.59,10.63c11.22.79,19.04,2.02,23.46,3.69,4.43,1.67,6.64,4.38,6.64,8.12,0,2.76-.84,6.05-2.51,9.89-1.67,3.84-4.09,8.61-7.23,14.31l-51.95,93.86-53.72-98.88c-2.36-4.52-4.23-8.36-5.61-11.51-1.38-3.15-2.07-5.9-2.07-8.27,0-3.54,2.02-6.2,6.05-7.97,4.03-1.77,11.36-3.05,21.99-3.84l-.89-10.04c-8.27,0-16.68.1-25.24.3-8.56.2-16.97.3-25.24.3-10.04,0-20.02-.1-29.96-.3-9.94-.2-19.04-.3-27.3-.3l-.59,10.63c7.67.59,13.97,1.53,18.89,2.8,4.92,1.28,9.2,3.35,12.84,6.2,3.64,2.86,7.08,6.69,10.33,11.51,3.25,4.82,7.13,11.07,11.66,18.74,11.61,19.29,21.2,35.62,28.78,49,7.57,13.38,14.02,24.79,19.33,34.24,3.93,7.08,6.98,12.99,9.15,17.71,2.16,4.72,3.79,9.11,4.87,13.14,1.08,4.04,1.72,8.07,1.92,12.1.19,4.04.3,8.91.3,14.61v44.86c0,7.48-.44,13.53-1.33,18.15-.89,4.63-2.71,8.32-5.46,11.07-2.76,2.76-6.89,4.72-12.4,5.9-5.51,1.18-12.79,2.07-21.84,2.66l.89,10.04c3.74,0,7.97-.05,12.69-.15,4.72-.1,9.44-.15,14.17-.15s9.39-.05,14.02-.15c4.62-.1,8.9-.15,12.84-.15,4.72,0,9.79.05,15.2.15,5.41.1,10.87.15,16.38.15s10.87.05,16.09.15c5.21.1,9.89.15,14.02.15l.59-10.63c-9.64-.39-17.27-1.08-22.88-2.07-5.61-.98-9.79-2.51-12.54-4.57-2.76-2.07-4.53-4.67-5.31-7.82-.79-3.15-1.18-7.08-1.18-11.81v-58.44c0-4.92.05-9.1.15-12.55.1-3.44.64-7.03,1.62-10.77.98-3.74,2.56-8.07,4.72-12.99,2.16-4.92,5.31-11.41,9.45-19.48,4.13-8.27,9.84-18.84,17.12-31.73,7.28-12.89,15.94-27.7,25.97-44.42,5.51-9.25,10.18-16.72,14.02-22.43,3.84-5.7,7.72-10.23,11.66-13.58,3.94-3.34,8.41-5.7,13.43-7.08,5.02-1.37,11.36-2.36,19.04-2.95l-.88-10.04Z"/>
</svg>